# Blender v3.1.2 OBJ File: ''
# www.blender.org
mtllib Board.mtl
o Board_Board.001
v 0.700000 -0.000000 -0.500000
v 0.600000 0.000000 0.700000
v 0.600000 0.100000 0.600000
v 0.600000 0.300000 -0.100000
v 0.600000 0.500000 -0.300000
v 0.600000 0.500000 -0.200000
v 0.600000 0.500000 -0.100000
v 0.600000 0.500000 0.600000
v 0.600000 0.700000 0.500000
v 0.600000 0.700000 0.300000
v 0.600000 0.900000 0.400000
v 0.600000 1.200000 0.300000
v 0.600000 1.300000 0.200000
v -0.200000 -0.000000 -0.600000
v -0.500000 0.000000 0.800000
v -0.500000 0.100000 0.600000
v -0.500000 0.300000 0.700000
v -0.500000 0.500000 0.400000
v -0.500000 0.700000 0.500000
v -0.500000 0.900000 0.200000
v -0.500000 1.100000 0.200000
v -0.500000 1.100000 0.300000
v 0.500000 -0.000000 -0.600000
v 0.500000 0.100000 -0.600000
v 0.500000 0.100000 -0.500000
v 0.500000 0.000000 0.700000
v 0.500000 0.000000 0.800000
v 0.500000 0.100000 0.700000
v 0.500000 0.100000 0.800000
v 0.500000 0.300000 0.700000
v 0.500000 0.700000 0.400000
v 0.500000 0.900000 0.200000
v 0.500000 1.100000 0.300000
v 0.300000 -0.000000 -0.600000
v 0.300000 0.100000 -0.700000
v 0.200000 1.200000 0.100000
v 0.200000 1.200000 0.200000
v 0.200000 1.300000 0.100000
v -0.600000 0.100000 -0.600000
v -0.600000 -0.000000 -0.500000
v -0.600000 -0.000000 -0.300000
v -0.600000 0.300000 -0.400000
v -0.600000 0.100000 0.600000
v -0.600000 0.300000 0.600000
v -0.600000 0.300000 0.700000
v -0.600000 0.500000 -0.200000
v -0.600000 0.500000 -0.100000
v -0.600000 0.300000 0.500000
v -0.600000 0.500000 0.600000
v -0.600000 0.500000 0.400000
v -0.600000 0.700000 0.500000
v -0.600000 0.700000 0.300000
v -0.600000 1.100000 0.100000
v -0.600000 1.200000 0.100000
v -0.600000 1.200000 0.300000
v 0.300000 -0.000000 -0.700000
v 0.500000 0.100000 -0.700000
v 0.500000 -0.000000 -0.700000
v -0.600000 -0.000000 -0.700000
v -0.200000 0.100000 -0.700000
v 0.700000 0.100000 -0.600000
v 0.700000 -0.000000 -0.600000
v 0.600000 0.100000 -0.400000
v 0.600000 0.300000 -0.300000
v 0.600000 0.700000 -0.200000
v 0.600000 0.900000 -0.000000
v 0.600000 1.100000 0.100000
v 0.600000 1.300000 0.100000
v 0.500000 0.700000 0.300000
v 0.500000 0.500000 0.400000
v 0.600000 0.500000 0.400000
v -0.500000 0.700000 0.400000
v 0.500000 0.300000 0.500000
v 0.600000 0.500000 0.500000
v 0.600000 0.300000 0.500000
v -0.500000 0.500000 0.500000
v -0.500000 0.300000 0.500000
v 0.600000 0.300000 0.600000
v -0.500000 0.100000 0.700000
v 0.600000 -0.000000 -0.300000
v -0.600000 0.100000 -0.300000
v -0.600000 0.100000 -0.200000
v -0.600000 0.300000 -0.100000
v 0.600000 0.500000 -0.000000
v -0.600000 0.500000 -0.000000
v -0.600000 0.700000 -0.000000
v 0.600000 0.700000 0.100000
v -0.600000 0.700000 0.100000
v -0.600000 0.900000 0.100000
v 0.200000 1.300000 0.200000
v -0.500000 0.900000 0.300000
v 0.600000 0.700000 0.400000
v -0.600000 0.700000 0.400000
v 0.500000 0.500000 0.500000
v 0.500000 0.700000 0.500000
v -0.600000 0.500000 0.500000
v 0.500000 0.500000 0.600000
v -0.500000 0.500000 0.600000
v 0.600000 0.300000 0.700000
v -0.600000 0.100000 0.700000
v 0.600000 0.100000 0.800000
v -0.200000 -0.000000 -0.700000
v -0.600000 -0.000000 -0.600000
v 0.600000 -0.000000 -0.500000
v 0.500000 -0.000000 -0.500000
v 0.600000 0.000000 0.800000
v -0.600000 0.000000 0.700000
v -0.500000 0.000000 0.700000
v -0.600000 0.000000 0.800000
v 0.600000 0.100000 -0.200000
v 0.600000 0.100000 -0.300000
v 0.500000 0.100000 0.600000
v 0.600000 0.300000 -0.200000
v -0.600000 0.300000 -0.200000
v -0.500000 0.300000 0.600000
v 0.600000 0.700000 -0.000000
v -0.500000 0.700000 0.300000
v 0.600000 0.900000 0.100000
v 0.500000 0.900000 0.300000
v 0.500000 1.100000 0.200000
v 0.300000 0.100000 -0.600000
v -0.600000 0.100000 -0.700000
v -0.200000 0.100000 -0.600000
v 0.700000 0.100000 -0.500000
v 0.600000 0.100000 -0.500000
v -0.600000 0.100000 -0.500000
v -0.600000 0.100000 -0.400000
v 0.600000 0.100000 0.700000
v -0.500000 0.100000 0.800000
v -0.600000 0.100000 0.800000
v 0.600000 0.300000 -0.400000
v -0.600000 0.300000 -0.300000
v 0.500000 0.300000 0.600000
v -0.600000 0.500000 -0.300000
v 0.600000 0.700000 -0.100000
v -0.600000 0.700000 -0.200000
v -0.600000 0.700000 -0.100000
v 0.600000 0.900000 -0.100000
v -0.600000 0.900000 -0.100000
v -0.600000 0.900000 -0.000000
v 0.600000 0.900000 0.300000
v 0.500000 0.900000 0.400000
v -0.600000 0.900000 0.300000
v -0.500000 0.900000 0.400000
v -0.600000 0.900000 0.400000
v 0.600000 1.100000 -0.000000
v -0.600000 1.100000 -0.000000
v 0.600000 1.200000 0.200000
vt 0.609375 0.734375
vt 0.421875 0.734375
vt 0.421875 0.750000
vt 0.609375 0.750000
vt 0.718750 0.578125
vt 0.718750 0.593750
vt 0.703125 0.593750
vt 0.703125 0.578125
vt 0.656250 0.296875
vt 0.656250 0.265625
vt 0.640625 0.265625
vt 0.640625 0.296875
vt 0.718750 0.250000
vt 0.718750 0.234375
vt 0.703125 0.234375
vt 0.703125 0.250000
vt 0.671875 0.625000
vt 0.640625 0.625000
vt 0.640625 0.640625
vt 0.671875 0.640625
vt 0.281250 0.312500
vt 0.312500 0.312500
vt 0.312500 0.296875
vt 0.281250 0.296875
vt 0.625000 0.687500
vt 0.625000 0.703125
vt 0.656250 0.703125
vt 0.656250 0.687500
vt 0.703125 0.468750
vt 0.703125 0.484375
vt 0.687500 0.484375
vt 0.687500 0.468750
vt 0.656250 0.484375
vt 0.656250 0.453125
vt 0.640625 0.453125
vt 0.640625 0.484375
vt 0.703125 0.531250
vt 0.703125 0.546875
vt 0.671875 0.546875
vt 0.671875 0.531250
vt 0.671875 0.406250
vt 0.656250 0.406250
vt 0.656250 0.421875
vt 0.671875 0.421875
vt 0.625000 0.328125
vt 0.625000 0.296875
vt 0.437500 0.296875
vt 0.437500 0.328125
vt 0.609375 0.468750
vt 0.609375 0.437500
vt 0.625000 0.437500
vt 0.625000 0.468750
vt 0.703125 0.609375
vt 0.687500 0.609375
vt 0.687500 0.593750
vt 0.703125 0.593750
vt 0.687500 0.578125
vt 0.687500 0.593750
vt 0.656250 0.593750
vt 0.656250 0.578125
vt 0.687500 0.453125
vt 0.687500 0.468750
vt 0.703125 0.468750
vt 0.703125 0.453125
vt 0.625000 0.500000
vt 0.609375 0.500000
vt 0.640625 0.625000
vt 0.640625 0.593750
vt 0.625000 0.593750
vt 0.625000 0.625000
vt 0.718750 0.296875
vt 0.718750 0.312500
vt 0.703125 0.312500
vt 0.703125 0.296875
vt 0.640625 0.625000
vt 0.625000 0.625000
vt 0.625000 0.640625
vt 0.640625 0.640625
vt 0.296875 0.656250
vt 0.296875 0.671875
vt 0.234375 0.671875
vt 0.234375 0.640625
vt 0.703125 0.296875
vt 0.687500 0.296875
vt 0.687500 0.312500
vt 0.703125 0.312500
vt 0.656250 0.625000
vt 0.656250 0.593750
vt 0.640625 0.593750
vt 0.640625 0.625000
vt 0.687500 0.312500
vt 0.687500 0.296875
vt 0.625000 0.296875
vt 0.625000 0.312500
vt 0.437500 0.703125
vt 0.437500 0.687500
vt 0.625000 0.687500
vt 0.625000 0.703125
vt 0.718750 0.546875
vt 0.718750 0.531250
vt 0.703125 0.531250
vt 0.703125 0.546875
vt 0.609375 0.734375
vt 0.609375 0.718750
vt 0.421875 0.718750
vt 0.421875 0.734375
vt 0.625000 0.656250
vt 0.437500 0.656250
vt 0.437500 0.625000
vt 0.625000 0.625000
vt 0.671875 0.421875
vt 0.671875 0.437500
vt 0.687500 0.437500
vt 0.687500 0.421875
vt 0.437500 0.359375
vt 0.421875 0.359375
vt 0.421875 0.375000
vt 0.437500 0.375000
vt 0.703125 0.265625
vt 0.703125 0.281250
vt 0.718750 0.281250
vt 0.718750 0.265625
vt 0.703125 0.328125
vt 0.687500 0.328125
vt 0.421875 0.437500
vt 0.609375 0.437500
vt 0.609375 0.468750
vt 0.421875 0.468750
vt 0.703125 0.578125
vt 0.687500 0.578125
vt 0.718750 0.687500
vt 0.718750 0.703125
vt 0.687500 0.703125
vt 0.687500 0.687500
vt 0.437500 0.562500
vt 0.437500 0.593750
vt 0.265625 0.593750
vt 0.250000 0.562500
vt 0.671875 0.515625
vt 0.671875 0.531250
vt 0.703125 0.531250
vt 0.703125 0.515625
vt 0.687500 0.328125
vt 0.687500 0.312500
vt 0.656250 0.312500
vt 0.656250 0.328125
vt 0.312500 0.421875
vt 0.312500 0.437500
vt 0.281250 0.437500
vt 0.281250 0.421875
vt 0.671875 0.484375
vt 0.656250 0.484375
vt 0.656250 0.468750
vt 0.671875 0.468750
vt 0.718750 0.375000
vt 0.718750 0.390625
vt 0.703125 0.390625
vt 0.703125 0.375000
vt 0.671875 0.375000
vt 0.609375 0.375000
vt 0.609375 0.390625
vt 0.671875 0.390625
vt 0.625000 0.328125
vt 0.625000 0.312500
vt 0.609375 0.359375
vt 0.593750 0.359375
vt 0.593750 0.375000
vt 0.609375 0.375000
vt 0.687500 0.687500
vt 0.687500 0.703125
vt 0.656250 0.703125
vt 0.656250 0.687500
vt 0.656250 0.562500
vt 0.656250 0.578125
vt 0.687500 0.578125
vt 0.687500 0.562500
vt 0.671875 0.640625
vt 0.671875 0.656250
vt 0.703125 0.656250
vt 0.703125 0.640625
vt 0.656250 0.406250
vt 0.640625 0.406250
vt 0.640625 0.421875
vt 0.656250 0.421875
vt 0.671875 0.515625
vt 0.609375 0.515625
vt 0.609375 0.531250
vt 0.671875 0.531250
vt 0.234375 0.515625
vt 0.234375 0.484375
vt 0.250000 0.484375
vt 0.250000 0.515625
vt 0.421875 0.687500
vt 0.421875 0.703125
vt 0.234375 0.703125
vt 0.234375 0.687500
vt 0.609375 0.484375
vt 0.421875 0.484375
vt 0.421875 0.515625
vt 0.609375 0.515625
vt 0.437500 0.593750
vt 0.625000 0.593750
vt 0.625000 0.562500
vt 0.437500 0.562500
vt 0.718750 0.656250
vt 0.703125 0.656250
vt 0.703125 0.640625
vt 0.718750 0.640625
vt 0.437500 0.296875
vt 0.437500 0.265625
vt 0.625000 0.265625
vt 0.625000 0.296875
vt 0.406250 0.515625
vt 0.406250 0.484375
vt 0.421875 0.484375
vt 0.421875 0.515625
vt 0.656250 0.250000
vt 0.656250 0.234375
vt 0.671875 0.234375
vt 0.671875 0.250000
vt 0.625000 0.328125
vt 0.437500 0.328125
vt 0.437500 0.343750
vt 0.625000 0.343750
vt 0.640625 0.296875
vt 0.640625 0.265625
vt 0.625000 0.265625
vt 0.625000 0.296875
vt 0.593750 0.656250
vt 0.437500 0.656250
vt 0.437500 0.687500
vt 0.593750 0.687500
vt 0.640625 0.500000
vt 0.640625 0.468750
vt 0.625000 0.468750
vt 0.625000 0.500000
vt 0.718750 0.562500
vt 0.718750 0.578125
vt 0.687500 0.578125
vt 0.687500 0.562500
vt 0.703125 0.375000
vt 0.703125 0.390625
vt 0.671875 0.390625
vt 0.671875 0.375000
vt 0.609375 0.375000
vt 0.609375 0.359375
vt 0.765625 0.359375
vt 0.765625 0.375000
vt 0.703125 0.500000
vt 0.703125 0.515625
vt 0.718750 0.515625
vt 0.718750 0.500000
vt 0.671875 0.453125
vt 0.656250 0.453125
vt 0.671875 0.656250
vt 0.640625 0.656250
vt 0.640625 0.640625
vt 0.671875 0.640625
vt 0.609375 0.515625
vt 0.421875 0.515625
vt 0.421875 0.546875
vt 0.609375 0.546875
vt 0.421875 0.406250
vt 0.437500 0.390625
vt 0.593750 0.390625
vt 0.609375 0.406250
vt 0.296875 0.625000
vt 0.296875 0.640625
vt 0.421875 0.640625
vt 0.421875 0.609375
vt 0.671875 0.437500
vt 0.656250 0.437500
vt 0.687500 0.453125
vt 0.671875 0.453125
vt 0.671875 0.468750
vt 0.687500 0.468750
vt 0.718750 0.265625
vt 0.718750 0.250000
vt 0.703125 0.250000
vt 0.703125 0.265625
vt 0.640625 0.234375
vt 0.656250 0.234375
vt 0.703125 0.453125
vt 0.687500 0.453125
vt 0.687500 0.437500
vt 0.703125 0.437500
vt 0.250000 0.593750
vt 0.625000 0.437500
vt 0.640625 0.437500
vt 0.687500 0.484375
vt 0.671875 0.484375
vt 0.625000 0.562500
vt 0.640625 0.562500
vt 0.640625 0.656250
vt 0.625000 0.656250
vt 0.656250 0.437500
vt 0.640625 0.437500
vt 0.250000 0.453125
vt 0.250000 0.437500
vt 0.281250 0.453125
vt 0.687500 0.593750
vt 0.687500 0.609375
vt 0.656250 0.609375
vt 0.656250 0.593750
vt 0.640625 0.406250
vt 0.625000 0.406250
vt 0.625000 0.421875
vt 0.640625 0.421875
vt 0.375000 0.390625
vt 0.406250 0.390625
vt 0.406250 0.406250
vt 0.375000 0.406250
vt 0.656250 0.437500
vt 0.656250 0.453125
vt 0.687500 0.453125
vt 0.687500 0.437500
vt 0.671875 0.625000
vt 0.671875 0.640625
vt 0.703125 0.640625
vt 0.703125 0.625000
vt 0.671875 0.250000
vt 0.671875 0.234375
vt 0.703125 0.234375
vt 0.703125 0.250000
vt 0.421875 0.734375
vt 0.234375 0.734375
vt 0.234375 0.718750
vt 0.421875 0.718750
vt 0.421875 0.671875
vt 0.234375 0.671875
vt 0.234375 0.687500
vt 0.421875 0.687500
vt 0.687500 0.406250
vt 0.671875 0.406250
vt 0.640625 0.437500
vt 0.625000 0.437500
vt 0.437500 0.593750
vt 0.625000 0.593750
vt 0.625000 0.625000
vt 0.437500 0.625000
vt 0.437500 0.234375
vt 0.625000 0.234375
vt 0.625000 0.265625
vt 0.437500 0.265625
vt 0.593750 0.671875
vt 0.593750 0.656250
vt 0.765625 0.656250
vt 0.765625 0.671875
vt 0.640625 0.562500
vt 0.656250 0.562500
vt 0.687500 0.343750
vt 0.687500 0.328125
vt 0.625000 0.328125
vt 0.625000 0.343750
vt 0.703125 0.500000
vt 0.703125 0.515625
vt 0.671875 0.515625
vt 0.671875 0.500000
vt 0.609375 0.718750
vt 0.609375 0.703125
vt 0.421875 0.703125
vt 0.421875 0.718750
vt 0.421875 0.718750
vt 0.421875 0.703125
vt 0.234375 0.703125
vt 0.234375 0.718750
vt 0.250000 0.312500
vt 0.250000 0.328125
vt 0.281250 0.328125
vt 0.718750 0.515625
vt 0.718750 0.531250
vt 0.703125 0.531250
vt 0.703125 0.515625
vt 0.625000 0.234375
vt 0.640625 0.234375
vt 0.406250 0.265625
vt 0.375000 0.265625
vt 0.375000 0.281250
vt 0.406250 0.281250
vt 0.687500 0.328125
vt 0.687500 0.343750
vt 0.718750 0.343750
vt 0.718750 0.328125
vt 0.640625 0.437500
vt 0.656250 0.437500
vt 0.343750 0.281250
vt 0.343750 0.265625
vt 0.703125 0.250000
vt 0.703125 0.265625
vt 0.671875 0.265625
vt 0.671875 0.250000
vt 0.265625 0.609375
vt 0.234375 0.609375
vt 0.671875 0.281250
vt 0.656250 0.281250
vt 0.625000 0.406250
vt 0.437500 0.406250
vt 0.453125 0.421875
vt 0.625000 0.421875
vt 0.437500 0.265625
vt 0.437500 0.250000
vt 0.421875 0.250000
vt 0.671875 0.265625
vt 0.671875 0.281250
vt 0.703125 0.281250
vt 0.703125 0.265625
vt 0.375000 0.234375
vt 0.343750 0.296875
vt 0.375000 0.296875
vt 0.343750 0.312500
vt 0.312500 0.328125
vt 0.250000 0.343750
vt 0.281250 0.343750
vt 0.671875 0.515625
vt 0.609375 0.515625
vt 0.609375 0.500000
vt 0.671875 0.500000
vt 0.234375 0.359375
vt 0.250000 0.359375
vt 0.234375 0.562500
vt 0.250000 0.546875
vt 0.312500 0.281250
vt 0.703125 0.625000
vt 0.703125 0.640625
vt 0.718750 0.640625
vt 0.718750 0.625000
vt 0.421875 0.562500
vt 0.406250 0.546875
vt 0.234375 0.609375
vt 0.234375 0.625000
vt 0.421875 0.437500
vt 0.453125 0.437500
vt 0.437500 0.421875
vt 0.421875 0.359375
vt 0.421875 0.390625
vt 0.343750 0.421875
vt 0.343750 0.406250
vt 0.375000 0.421875
vt 0.343750 0.437500
vt 0.312500 0.453125
vt 0.250000 0.468750
vt 0.281250 0.468750
vt 0.687500 0.406250
vt 0.687500 0.421875
vt 0.718750 0.421875
vt 0.718750 0.406250
vt 0.421875 0.234375
vt 0.234375 0.453125
vt 0.312500 0.406250
vt 0.343750 0.390625
vt 0.234375 0.750000
vt 0.234375 0.734375
vt 0.421875 0.734375
vt 0.421875 0.750000
vt 0.234375 0.328125
vt 0.375000 0.359375
vt 0.234375 0.593750
vt 0.234375 0.484375
vt 0.250000 0.484375
vt 0.421875 0.640625
vt 0.421875 0.656250
vt 0.421875 0.421875
vt 0.609375 0.546875
vt 0.609375 0.531250
vt 0.671875 0.531250
vt 0.671875 0.546875
vn 0.0000 1.0000 -0.0000
vn -1.0000 0.0000 0.0000
vn 0.0000 0.0000 1.0000
vn 1.0000 0.0000 0.0000
vn 0.0000 -0.0000 -1.0000
vn 0.0000 -1.0000 0.0000
usemtl BoardCleanedMaterial
s off
f 137/1/1 135/2/1 65/3/1 136/4/1
f 90/5/2 38/6/2 36/7/2 37/8/2
f 51/9/3 96/10/3 76/11/3 19/12/3
f 130/13/3 109/14/3 15/15/3 129/16/3
f 121/17/1 24/18/1 57/19/1 35/20/1
f 113/21/4 6/22/4 7/23/4 4/24/4
f 79/25/4 16/26/4 115/27/4 17/28/4
f 29/29/2 28/30/2 26/31/2 27/32/2
f 30/33/3 28/34/3 128/35/3 99/36/3
f 33/37/2 120/38/2 32/39/2 119/40/2
f 30/41/1 99/42/1 78/43/1 133/44/1
f 89/45/3 88/46/3 87/47/3 118/48/3
f 78/49/5 3/50/5 112/51/5 133/52/5
f 48/53/6 77/54/6 115/55/6 44/56/6
f 97/57/2 94/58/2 73/59/2 133/60/2
f 106/61/4 2/62/4 128/63/4 101/64/4
f 97/65/3 133/52/3 78/49/3 8/66/3
f 142/67/3 31/68/3 92/69/3 11/70/3
f 130/71/2 100/72/2 107/73/2 109/74/2
f 95/75/1 9/76/1 92/77/1 31/78/1
f 36/79/5 38/80/5 68/81/5 67/82/5
f 51/83/1 19/84/1 72/85/1 93/86/1
f 145/87/3 93/88/3 72/89/3 144/90/3
f 39/91/3 103/92/3 14/93/3 123/94/3
f 111/95/6 110/96/6 82/97/6 81/98/6
f 29/99/3 27/100/3 106/101/3 101/102/3
f 147/103/1 53/104/1 67/105/1 146/106/1
f 139/107/5 138/108/5 135/109/5 137/110/5
f 23/111/4 58/112/4 57/113/4 24/114/4
f 142/115/1 11/116/1 141/117/1 119/118/1
f 1/119/4 62/120/4 61/121/4 124/122/4
f 52/123/6 117/124/6 72/85/6 93/86/6
f 66/125/5 140/126/5 147/127/5 146/128/5
f 45/129/1 17/130/1 115/55/1 44/56/1
f 142/131/2 119/132/2 69/133/2 31/134/2
f 41/135/6 40/136/6 105/137/6 80/138/6
f 91/139/4 20/140/4 21/141/4 22/142/4
f 121/143/3 34/144/3 23/145/3 24/146/3
f 47/147/2 46/148/2 114/149/2 83/150/2
f 50/151/6 18/152/6 76/153/6 96/154/6
f 39/155/2 122/156/2 59/157/2 103/158/2
f 39/159/1 123/160/1 60/161/1 122/162/1
f 61/163/5 62/164/5 23/145/5 24/146/5
f 145/165/1 144/166/1 91/167/1 143/168/1
f 45/169/2 44/170/2 43/171/2 100/172/2
f 78/173/4 75/174/4 74/175/4 8/176/4
f 76/177/4 18/178/4 72/179/4 19/180/4
f 29/181/1 101/182/1 128/183/1 28/184/1
f 90/185/1 13/186/1 68/187/1 38/188/1
f 141/189/5 10/190/5 69/191/5 119/192/5
f 85/193/6 47/194/6 7/195/6 84/196/6
f 83/197/3 4/198/3 7/199/3 47/200/3
f 116/201/3 86/202/3 85/203/3 84/204/3
f 107/205/6 108/206/6 15/207/6 109/208/6
f 5/209/5 64/210/5 132/211/5 134/212/5
f 91/213/5 117/214/5 52/215/5 143/216/5
f 79/217/5 108/218/5 107/219/5 100/220/5
f 140/221/1 66/222/1 138/223/1 139/224/1
f 95/225/3 94/226/3 74/227/3 9/228/3
f 20/229/3 32/230/3 120/231/3 21/232/3
f 49/233/3 44/234/3 115/235/3 98/236/3
f 145/237/2 143/238/2 52/239/2 93/240/2
f 95/241/2 31/242/2 70/243/2 94/244/2
f 120/245/6 33/246/6 22/247/6 21/248/6
f 15/249/4 108/250/4 79/251/4 129/252/4
f 49/253/1 98/254/1 76/153/1 96/154/1
f 56/255/6 58/256/6 23/257/6 34/258/6
f 82/259/3 110/260/3 113/261/3 114/262/3
f 118/263/6 32/264/6 20/265/6 89/266/6
f 37/267/1 36/268/1 54/269/1 55/270/1
f 73/271/6 75/272/6 78/43/6 133/44/6
f 130/273/1 129/274/1 79/275/1 100/276/1
f 125/277/3 104/278/3 1/279/3 124/280/3
f 76/11/5 77/281/5 48/282/5 96/10/5
f 26/283/6 2/284/6 106/285/6 27/286/6
f 104/287/6 80/138/6 105/137/6
f 115/235/5 16/288/5 43/289/5 44/234/5
f 43/290/6 16/291/6 79/275/6 100/276/6
f 92/69/5 71/292/5 70/293/5 31/68/5
f 69/294/6 10/295/6 92/77/6 31/78/6
f 112/296/6 3/297/6 128/183/6 28/184/6
f 81/298/2 82/299/2 114/149/2 132/300/2
f 49/301/2 96/302/2 48/303/2 44/304/2
f 97/305/1 8/306/1 74/307/1 94/308/1
f 89/309/2 53/310/2 147/311/2 140/312/2
f 115/313/4 77/314/4 76/315/4 98/316/4
f 74/317/4 71/318/4 92/319/4 9/320/4
f 57/321/5 58/322/5 56/323/5 35/324/5
f 86/325/6 116/326/6 87/327/6 88/328/6
f 46/329/1 6/330/1 5/331/1 134/332/1
f 25/333/2 24/114/2 23/111/2 105/334/2
f 70/335/6 71/336/6 74/307/6 94/308/6
f 6/337/5 46/338/5 136/339/5 65/340/5
f 63/341/5 127/342/5 42/343/5 131/344/5
f 25/345/5 105/346/5 40/347/5 126/348/5
f 72/89/5 18/349/5 50/350/5 93/88/5
f 90/351/3 37/352/3 148/353/3 13/354/3
f 51/355/2 93/356/2 50/357/2 96/358/2
f 42/359/1 132/360/1 64/361/1 131/362/1
f 81/363/3 41/364/3 80/365/3 111/366/3
f 113/21/4 110/367/4 111/368/4 64/369/4
f 121/370/2 35/371/2 56/372/2 34/373/2
f 74/227/5 75/374/5 73/375/5 94/226/5
f 67/376/4 118/377/4 66/378/4 146/379/4
f 92/380/4 10/381/4 141/382/4 11/383/4
f 128/35/5 2/384/5 26/385/5 28/34/5
f 116/386/4 66/378/4 118/377/4 87/387/4
f 30/388/2 133/389/2 112/390/2 28/391/2
f 23/392/6 62/393/6 104/287/6 105/137/6
f 45/394/3 100/220/3 79/217/3 17/395/3
f 127/396/1 63/397/1 25/398/1 126/399/1
f 67/376/4 68/400/4 13/401/4 148/402/4
f 128/403/4 3/404/4 78/405/4 99/406/4
f 141/407/4 118/377/4 67/376/4
f 66/378/4 116/386/4 135/408/4 138/409/4
f 135/408/4 7/23/4 6/22/4 65/410/4
f 6/22/4 113/21/4 64/369/4 5/411/4
f 64/369/4 111/368/4 63/412/4 131/413/4
f 59/414/6 102/415/6 14/416/6 103/417/6
f 104/418/4 125/419/4 63/412/4
f 141/189/3 12/420/3 33/421/3 119/192/3
f 7/23/4 135/408/4 116/386/4 84/422/4
f 14/423/4 102/424/4 60/425/4 123/426/4
f 55/427/3 22/428/3 33/421/3 12/420/3
f 12/429/1 148/430/1 37/267/1 55/270/1
f 61/431/1 24/432/1 25/398/1 125/433/1
f 55/434/2 54/435/2 53/310/2
f 137/436/2 86/437/2 140/312/2 139/438/2
f 46/148/2 47/147/2 137/436/2 136/439/2
f 114/149/2 46/148/2 134/440/2 132/300/2
f 127/441/2 81/298/2 132/300/2 42/442/2
f 72/443/4 117/444/4 91/445/4 144/446/4
f 141/407/4 67/376/4 148/402/4 12/447/4
f 41/448/2 81/298/2 127/441/2
f 86/437/2 137/436/2 47/147/2 85/449/2
f 89/309/2 140/312/2 86/437/2 88/450/2
f 113/451/6 4/452/6 83/453/6 114/454/6
f 80/455/4 104/418/4 63/412/4 111/368/4
f 143/168/6 89/266/6 20/265/6 91/167/6
f 143/456/2 55/434/2 53/310/2 89/309/2
f 143/216/3 91/213/3 22/428/3 55/427/3
f 62/393/6 1/457/6 104/287/6
f 40/458/2 41/448/2 127/441/2 126/459/2
f 141/117/6 119/118/6 32/264/6 118/263/6
f 53/460/5 54/461/5 36/79/5 67/82/5
f 63/397/1 125/433/1 25/398/1
f 125/433/1 124/462/1 61/431/1
f 60/463/5 102/464/5 59/465/5 122/466/5
