# Blender v3.1.2 OBJ File: ''
# www.blender.org
mtllib Cereal.mtl
o Cereal_Cereal.001
v 0.500000 1.200000 -0.100000
v 0.500000 1.200000 0.200000
v 0.400000 0.000000 0.200000
v 0.400000 1.200000 0.300000
v -0.100000 -0.000000 -0.200000
v -0.100000 -0.000000 -0.300000
v 0.100000 1.200000 0.200000
v -0.200000 1.200000 0.100000
v -0.400000 -0.000000 -0.300000
v -0.400000 1.200000 -0.300000
v -0.100000 1.200000 -0.300000
v 0.200000 -0.000000 -0.200000
v -0.400000 -0.000000 -0.200000
v -0.500000 1.200000 -0.200000
v 0.200000 -0.000000 -0.100000
v -0.500000 0.000000 0.100000
v 0.500000 0.000000 0.200000
v 0.100000 0.000000 0.200000
v -0.200000 0.000000 0.200000
v -0.200000 1.200000 0.200000
v 0.100000 1.200000 0.300000
v -0.500000 -0.000000 -0.200000
v 0.500000 -0.000000 -0.100000
v -0.200000 0.000000 0.100000
v 0.400000 0.000000 0.300000
v 0.100000 0.000000 0.300000
v -0.100000 1.200000 -0.200000
v -0.400000 1.200000 -0.200000
v 0.200000 1.200000 -0.100000
v 0.200000 1.200000 -0.200000
v -0.500000 1.200000 0.100000
v 0.400000 1.200000 0.200000
vt 0.343750 0.375000
vt 0.437500 0.375000
vt 0.437500 0.468750
vt 0.406250 0.468750
vt 0.500000 0.781250
vt 0.125000 0.781250
vt 0.125000 0.812500
vt 0.500000 0.812500
vt 0.500000 0.500000
vt 0.531250 0.500000
vt 0.531250 0.875000
vt 0.500000 0.875000
vt 0.125000 0.843750
vt 0.500000 0.843750
vt 0.500000 0.812500
vt 0.125000 0.812500
vt 0.718750 0.500000
vt 0.718750 0.125000
vt 0.812500 0.125000
vt 0.812500 0.500000
vt 0.500000 0.843750
vt 0.500000 0.875000
vt 0.125000 0.875000
vt 0.125000 0.843750
vt 0.125000 0.718750
vt 0.125000 0.750000
vt 0.500000 0.750000
vt 0.500000 0.718750
vt 0.125000 0.500000
vt 0.500000 0.500000
vt 0.500000 0.593750
vt 0.125000 0.593750
vt 0.312500 0.468750
vt 0.218750 0.437500
vt 0.250000 0.343750
vt 0.718750 0.875000
vt 0.718750 0.500000
vt 0.625000 0.500000
vt 0.625000 0.875000
vt 0.500000 0.781250
vt 0.125000 0.781250
vt 0.125000 0.750000
vt 0.500000 0.750000
vt 0.125000 0.593750
vt 0.125000 0.687500
vt 0.500000 0.687500
vt 0.500000 0.593750
vt 0.625000 0.125000
vt 0.625000 0.500000
vt 0.531250 0.500000
vt 0.531250 0.125000
vt 0.312500 0.281250
vt 0.406250 0.281250
vt 0.343750 0.187500
vt 0.406250 0.312500
vt 0.312500 0.312500
vt 0.406250 0.500000
vt 0.312500 0.500000
vt 0.250000 0.312500
vt 0.156250 0.343750
vt 0.156250 0.312500
vt 0.843750 0.500000
vt 0.843750 0.125000
vt 0.812500 0.125000
vt 0.812500 0.500000
vt 0.437500 0.500000
vt 0.531250 0.500000
vt 0.531250 0.125000
vt 0.437500 0.125000
vt 0.218750 0.468750
vt 0.500000 0.687500
vt 0.500000 0.718750
vt 0.125000 0.718750
vt 0.125000 0.687500
vt 0.437500 0.187500
vt 0.437500 0.281250
vt 0.343750 0.343750
vt 0.125000 0.437500
vt 0.125000 0.343750
vt 0.218750 0.250000
vt 0.218750 0.281250
vt 0.531250 0.500000
vt 0.625000 0.500000
vt 0.625000 0.875000
vt 0.531250 0.875000
vt 0.343750 0.156250
vt 0.250000 0.156250
vt 0.156250 0.156250
vt 0.250000 0.125000
vt 0.156250 0.125000
vt 0.125000 0.250000
vt 0.125000 0.156250
vt 0.718750 0.500000
vt 0.718750 0.125000
vt 0.625000 0.125000
vt 0.625000 0.500000
vn 0.0000 -1.0000 0.0000
vn 1.0000 -0.0000 0.0000
vn 0.0000 -0.0000 -1.0000
vn -1.0000 -0.0000 0.0000
vn 0.0000 0.0000 1.0000
vn 0.0000 1.0000 0.0000
usemtl CerealCleanedMaterial
s off
f 24/1/1 16/2/1 22/3/1 13/4/1
f 4/5/2 25/6/2 3/7/2 32/8/2
f 13/9/3 22/10/3 14/11/3 28/12/3
f 6/13/2 11/14/2 27/15/2 5/16/2
f 30/17/3 12/18/3 5/19/3 27/20/3
f 28/21/4 10/22/4 9/23/4 13/24/4
f 15/25/2 12/26/2 30/27/2 29/28/2
f 16/29/4 31/30/4 14/31/4 22/32/4
f 5/33/1 15/34/1 18/35/1 24/1/1
f 31/36/5 16/37/5 24/38/5 8/39/5
f 7/40/4 18/41/4 26/42/4 21/43/4
f 17/44/2 23/45/2 1/46/2 2/47/2
f 9/48/3 10/49/3 11/50/3 6/51/3
f 27/52/6 28/53/6 8/54/6
f 10/55/6 28/53/6 27/52/6 11/56/6
f 13/4/1 9/57/1 6/58/1 5/33/1
f 26/59/1 18/35/1 3/60/1 25/61/1
f 32/62/5 3/63/5 17/64/5 2/65/5
f 7/66/5 20/67/5 19/68/5 18/69/5
f 5/33/1 12/70/1 15/34/1
f 20/71/4 8/72/4 24/73/4 19/74/4
f 31/75/6 8/54/6 28/53/6 14/76/6
f 15/34/1 3/60/1 18/35/1
f 18/35/1 19/77/1 24/1/1
f 13/4/1 5/33/1 24/1/1
f 23/78/1 17/79/1 3/60/1 15/34/1
f 29/80/6 30/81/6 27/52/6
f 23/82/3 15/83/3 29/84/3 1/85/3
f 8/54/6 20/86/6 7/87/6
f 32/88/6 29/80/6 7/87/6
f 7/87/6 21/89/6 4/90/6 32/88/6
f 8/54/6 7/87/6 29/80/6 27/52/6
f 1/91/6 29/80/6 32/88/6 2/92/6
f 21/93/5 26/94/5 25/95/5 4/96/5
