# Blender v3.1.2 OBJ File: ''
# www.blender.org
mtllib ProductBoard.mtl
o ProductBoard_ProductBoard.001
v 0.800000 0.100000 -0.600000
v 0.800000 1.400000 0.700000
v 0.600000 1.400000 -0.600000
v 0.600000 1.400000 0.600000
v 0.600000 1.400000 0.700000
v 0.800000 0.200000 -0.700000
v 0.800000 0.200000 -0.600000
v 0.600000 0.200000 -0.600000
v 0.800000 1.500000 -0.600000
v 0.800000 1.400000 -0.600000
v 0.600000 1.500000 -0.600000
v 0.600000 0.100000 0.600000
v 0.600000 0.200000 0.600000
v 0.800000 1.400000 0.600000
v 0.800000 0.200000 0.700000
v 0.800000 0.100000 0.600000
v 0.600000 0.100000 -0.600000
v 0.600000 0.200000 -0.700000
v 0.800000 0.200000 0.600000
v 0.600000 0.200000 0.700000
v 0.800000 1.400000 -0.700000
v 0.600000 1.400000 -0.700000
v 0.800000 1.500000 0.600000
v 0.600000 1.500000 0.600000
vt 0.562500 0.468750
vt 0.562500 0.437500
vt 0.500000 0.437500
vt 0.500000 0.468750
vt 0.562500 0.562500
vt 0.500000 0.562500
vt 0.500000 0.531250
vt 0.562500 0.531250
vt 0.468750 0.531250
vt 0.468750 0.500000
vt 0.093750 0.500000
vt 0.093750 0.531250
vt 0.500000 0.531250
vt 0.500000 0.500000
vt 0.562500 0.500000
vt 0.562500 0.531250
vt 0.562500 0.437500
vt 0.562500 0.062500
vt 0.625000 0.062500
vt 0.625000 0.437500
vt 0.500000 0.531250
vt 0.562500 0.531250
vt 0.625000 0.437500
vt 0.625000 0.062500
vt 0.687500 0.062500
vt 0.687500 0.437500
vt 0.562500 0.062500
vt 0.500000 0.062500
vt 0.500000 0.437500
vt 0.562500 0.437500
vt 0.500000 0.468750
vt 0.468750 0.468750
vt 0.468750 0.093750
vt 0.500000 0.093750
vt 0.093750 0.906250
vt 0.468750 0.906250
vt 0.093750 0.468750
vt 0.093750 0.093750
vt 0.500000 0.906250
vt 0.500000 0.531250
vt 0.562500 0.531250
vt 0.562500 0.500000
vt 0.625000 0.500000
vt 0.625000 0.531250
vt 0.062500 0.906250
vt 0.062500 0.531250
vt 0.468750 0.937500
vt 0.093750 0.937500
vt 0.625000 0.468750
vt 0.562500 0.468750
vt 0.562500 0.500000
vt 0.625000 0.500000
vt 0.750000 0.437500
vt 0.750000 0.062500
vt 0.687500 0.062500
vt 0.687500 0.437500
vt 0.093750 0.500000
vt 0.468750 0.500000
vt 0.062500 0.468750
vt 0.062500 0.093750
vt 0.625000 0.437500
vt 0.562500 0.437500
vt 0.562500 0.468750
vt 0.625000 0.468750
vt 0.093750 0.062500
vt 0.468750 0.062500
vt 0.500000 0.562500
vt 0.562500 0.562500
vt 0.562500 0.593750
vt 0.500000 0.593750
vn 0.0000 0.0000 1.0000
vn 0.0000 -1.0000 0.0000
vn 1.0000 0.0000 0.0000
vn 0.0000 0.0000 -1.0000
vn 0.0000 1.0000 -0.0000
vn -1.0000 0.0000 0.0000
usemtl ProductBoardCleanedMaterial
s off
f 24/1/1 4/2/1 14/3/1 23/4/1
f 13/5/2 19/6/2 15/7/2 20/8/2
f 14/9/3 2/10/3 15/11/3 19/12/3
f 9/13/4 10/14/4 3/15/4 11/16/4
f 1/17/2 16/18/2 12/19/2 17/20/2
f 16/21/1 19/6/1 13/5/1 12/22/1
f 21/23/4 6/24/4 18/25/4 22/26/4
f 24/27/5 23/28/5 9/29/5 11/30/5
f 11/31/6 3/32/6 4/33/6 24/34/6
f 14/9/3 19/12/3 7/35/3 10/36/3
f 4/33/6 3/32/6 8/37/6 13/38/6
f 10/36/3 9/39/3 23/40/3 14/9/3
f 6/41/2 7/42/2 8/43/2 18/44/2
f 1/45/3 7/35/3 19/12/3 16/46/3
f 21/47/3 10/36/3 7/35/3 6/48/3
f 3/49/5 10/50/5 21/51/5 22/52/5
f 5/53/1 20/54/1 15/55/1 2/56/1
f 18/57/6 8/37/6 3/32/6 22/58/6
f 8/37/6 17/59/6 12/60/6 13/38/6
f 5/61/5 2/62/5 14/63/5 4/64/5
f 13/38/6 20/65/6 5/66/6 4/33/6
f 1/67/4 17/68/4 8/69/4 7/70/4
