# Blender v3.1.2 OBJ File: ''
# www.blender.org
mtllib Shelf.mtl
o Shelf_Shelf.001
v 2.400000 0.000000 0.800000
v 2.200000 0.300000 0.600000
v 0.600000 0.200000 0.600000
v -1.000000 0.300000 -0.600000
v -1.000000 0.300000 0.600000
v 1.000000 0.200000 0.200000
v -0.600000 0.300000 -0.600000
v -0.600000 0.300000 0.600000
v -2.200000 0.300000 0.600000
v -2.300000 -0.000000 -0.800000
v -2.400000 -0.000000 -0.700000
v -2.400000 0.000000 0.800000
v -2.400000 0.200000 -0.700000
v -2.300000 -0.000000 -0.700000
v 0.600000 0.300000 -0.600000
v -0.600000 0.200000 -0.600000
v -1.000000 0.200000 -0.600000
v 2.200000 0.200000 0.600000
v 1.000000 0.300000 0.600000
v 0.600000 0.300000 0.600000
v -0.600000 0.200000 0.600000
v -1.000000 0.200000 0.600000
v 2.400000 0.200000 0.800000
v 2.300000 -0.000000 -0.700000
v 2.300000 -0.000000 -0.800000
v 2.400000 -0.000000 -0.700000
v 2.300000 0.200000 -0.800000
v -2.300000 0.200000 -0.800000
v 2.300000 0.200000 -0.700000
v -0.900000 0.200000 -0.700000
v -2.300000 0.200000 -0.700000
v 2.400000 0.200000 -0.700000
v 2.200000 0.200000 -0.600000
v 1.000000 0.200000 -0.600000
v 0.600000 0.200000 -0.600000
v -1.400000 0.200000 -0.600000
v -2.200000 0.200000 -0.600000
v 2.200000 0.200000 -0.500000
v -0.600000 0.200000 -0.200000
v 0.600000 0.200000 0.100000
v -1.000000 0.200000 0.200000
v 1.000000 0.200000 0.600000
v -2.200000 0.200000 0.600000
v -0.800000 0.200000 0.800000
v -2.400000 0.200000 0.800000
v 2.200000 0.300000 -0.600000
v 1.000000 0.300000 -0.600000
v -2.200000 0.300000 -0.600000
vt 0.109375 0.890625
vt 0.296875 0.890625
vt 0.296875 0.875000
vt 0.109375 0.875000
vt 0.765625 0.640625
vt 0.765625 0.609375
vt 0.781250 0.609375
vt 0.781250 0.640625
vt 0.140625 0.578125
vt 0.140625 0.562500
vt 0.125000 0.593750
vt 0.765625 0.687500
vt 0.765625 0.703125
vt 0.796875 0.703125
vt 0.796875 0.687500
vt 0.796875 0.671875
vt 0.796875 0.687500
vt 0.765625 0.687500
vt 0.765625 0.671875
vt 0.109375 0.359375
vt 0.109375 0.593750
vt 0.125000 0.343750
vt 0.109375 0.109375
vt 0.859375 0.109375
vt 0.843750 0.343750
vt 0.125000 0.359375
vt 0.843750 0.359375
vt 0.296875 0.609375
vt 0.109375 0.609375
vt 0.109375 0.796875
vt 0.296875 0.796875
vt 0.687500 0.671875
vt 0.687500 0.796875
vt 0.703125 0.796875
vt 0.703125 0.609375
vt 0.890625 0.109375
vt 0.890625 0.343750
vt 0.859375 0.343750
vt 0.109375 0.859375
vt 0.296875 0.859375
vt 0.296875 0.875000
vt 0.109375 0.875000
vt 0.671875 0.875000
vt 0.859375 0.875000
vt 0.859375 0.859375
vt 0.671875 0.859375
vt 0.296875 0.875000
vt 0.484375 0.875000
vt 0.484375 0.859375
vt 0.296875 0.859375
vt 0.109375 0.859375
vt 0.109375 0.828125
vt 0.828125 0.828125
vt 0.828125 0.859375
vt 0.625000 0.593750
vt 0.578125 0.578125
vt 0.390625 0.578125
vt 0.125000 0.609375
vt 0.328125 0.390625
vt 0.328125 0.453125
vt 0.390625 0.468750
vt 0.390625 0.390625
vt 0.843750 0.609375
vt 0.843750 0.593750
vt 0.828125 0.578125
vt 0.703125 0.578125
vt 0.671875 0.875000
vt 0.484375 0.875000
vt 0.546875 0.859375
vt 0.671875 0.859375
vt 0.671875 0.609375
vt 0.484375 0.609375
vt 0.484375 0.796875
vt 0.671875 0.796875
vt 0.484375 0.796875
vt 0.484375 0.609375
vt 0.296875 0.609375
vt 0.296875 0.796875
vt 0.734375 0.687500
vt 0.734375 0.796875
vt 0.750000 0.796875
vt 0.750000 0.609375
vt 0.765625 0.671875
vt 0.765625 0.640625
vt 0.781250 0.640625
vt 0.781250 0.671875
vt 0.671875 0.796875
vt 0.671875 0.671875
vt 0.687500 0.609375
vt 0.687500 0.796875
vt 0.859375 0.343750
vt 0.859375 0.578125
vt 0.890625 0.578125
vt 0.890625 0.343750
vt 0.718750 0.734375
vt 0.718750 0.609375
vt 0.734375 0.609375
vt 0.734375 0.796875
vt 0.640625 0.453125
vt 0.640625 0.390625
vt 0.609375 0.359375
vt 0.578125 0.390625
vt 0.718750 0.609375
vt 0.703125 0.609375
vt 0.703125 0.781250
vt 0.718750 0.796875
vt 0.859375 0.593750
vt 0.859375 0.359375
vt 0.828125 0.390625
vt 0.328125 0.578125
vt 0.578125 0.515625
vt 0.640625 0.578125
vt 0.109375 0.796875
vt 0.109375 0.828125
vt 0.609375 0.828125
vt 0.859375 0.796875
vt 0.734375 0.609375
vt 0.718750 0.796875
vt 0.140625 0.390625
vt 0.765625 0.609375
vt 0.765625 0.796875
vt 0.750000 0.796875
vt 0.750000 0.609375
vt 0.109375 0.343750
vt 0.859375 0.828125
vt 0.687500 0.609375
vt 0.671875 0.609375
vt 0.484375 0.859375
vt 0.703125 0.796875
vt 0.484375 0.875000
vt 0.484375 0.890625
vt 0.296875 0.890625
vt 0.296875 0.875000
vn 0.0000 0.0000 1.0000
vn 0.0000 -0.0000 -1.0000
vn -0.0000 1.0000 0.0000
vn 1.0000 0.0000 0.0000
vn -1.0000 0.0000 0.0000
vn 0.0000 -1.0000 0.0000
usemtl ShelfCleanedMaterial
s off
f 2/1/1 19/2/1 42/3/1 18/4/1
f 31/5/2 14/6/2 11/7/2 13/8/2
f 33/9/3 38/10/3 29/11/3
f 24/12/4 25/13/4 27/14/4 29/15/4
f 31/16/5 28/17/5 10/18/5 14/19/5
f 23/20/3 32/21/3 29/11/3 38/10/3
f 24/22/6 1/23/6 12/24/6 14/25/6
f 25/26/6 24/22/6 14/25/6 10/27/6
f 8/28/3 20/29/3 15/30/3 7/31/3
f 41/32/4 17/33/4 4/34/4 5/35/4
f 45/36/5 13/37/5 11/38/5 12/24/5
f 35/39/2 16/40/2 7/41/2 15/42/2
f 5/43/1 9/44/1 43/45/1 22/46/1
f 20/47/1 8/48/1 21/49/1 3/50/1
f 27/51/2 25/52/2 10/53/2 28/54/2
f 30/55/3 16/56/3 35/57/3 27/58/3
f 42/59/3 6/60/3 40/61/3 3/62/3
f 28/63/3 31/64/3 37/65/3 36/66/3
f 48/67/2 4/68/2 36/69/2 37/70/2
f 19/71/3 2/72/3 46/73/3 47/74/3
f 48/75/3 9/76/3 5/77/3 4/78/3
f 40/79/4 35/80/4 15/81/4 20/82/4
f 32/83/2 26/84/2 24/85/2 29/86/2
f 34/87/5 6/88/5 19/89/5 47/90/5
f 1/91/4 26/92/4 32/93/4 23/94/4
f 39/95/5 21/96/5 8/97/5 7/98/5
f 41/99/3 22/100/3 44/101/3 21/102/3
f 2/103/4 18/104/4 38/105/4 46/106/4
f 13/107/3 45/108/3 43/109/3 37/65/3
f 35/57/3 34/110/3 27/58/3
f 21/102/3 39/111/3 17/112/3 41/99/3
f 3/62/3 21/102/3 44/101/3 42/59/3
f 27/58/3 28/63/3 30/55/3
f 1/113/1 23/114/1 44/115/1 12/116/1
f 20/82/4 3/117/4 40/79/4
f 16/118/5 39/95/5 7/98/5
f 36/66/3 17/112/3 30/55/3 28/63/3
f 30/55/3 17/112/3 39/111/3 16/56/3
f 23/20/3 38/10/3 18/119/3
f 23/20/3 18/119/3 42/59/3 44/101/3
f 40/61/3 6/60/3 34/110/3 35/57/3
f 9/120/5 48/121/5 37/122/5 43/123/5
f 24/22/6 26/124/6 1/23/6
f 12/24/6 11/38/6 14/25/6
f 44/115/1 45/125/1 12/116/1
f 22/126/4 41/32/4 5/35/4
f 6/88/5 42/127/5 19/89/5
f 4/68/2 17/128/2 36/69/2
f 29/11/3 27/58/3 34/110/3 33/9/3
f 31/64/3 13/107/3 37/65/3
f 45/108/3 44/101/3 22/100/3 43/109/3
f 38/105/4 33/129/4 46/106/4
f 34/130/2 47/131/2 46/132/2 33/133/2
