# Blender v3.1.2 OBJ File: ''
# www.blender.org
mtllib Steam.mtl
o Steam_Steam.001
v 0.600000 0.100000 -0.000000
v 0.600000 0.200000 -0.000000
v 0.500000 -0.000000 -0.100000
v -0.400000 0.000000 0.100000
v -0.400000 0.300000 0.200000
v -0.400000 0.400000 -0.100000
v -0.400000 0.400000 -0.200000
v -0.400000 0.500000 -0.100000
v -0.500000 0.300000 0.200000
v 0.500000 0.300000 0.100000
v 0.400000 0.500000 -0.200000
v -0.500000 -0.000000 -0.100000
v -0.500000 0.000000 0.000000
v -0.500000 0.100000 -0.000000
v -0.500000 0.400000 -0.200000
v -0.500000 0.500000 -0.200000
v -0.600000 0.000000 0.200000
v -0.600000 0.200000 -0.100000
v -0.700000 0.200000 -0.100000
v -0.700000 0.600000 -0.100000
v 0.500000 0.500000 -0.200000
v 0.500000 0.400000 -0.200000
v -0.400000 0.500000 -0.200000
v 0.700000 0.600000 -0.100000
v 0.600000 0.100000 -0.100000
v -0.400000 -0.000000 -0.100000
v -0.500000 0.100000 -0.100000
v 0.700000 0.200000 -0.000000
v 0.500000 0.000000 0.000000
v 0.600000 0.000000 0.000000
v -0.600000 0.200000 -0.000000
v 0.400000 0.300000 0.100000
v -0.400000 0.300000 0.100000
v -0.500000 0.300000 0.100000
v 0.700000 0.100000 0.200000
v 0.600000 0.100000 0.200000
v 0.600000 0.000000 0.200000
v 0.700000 0.600000 0.200000
v 0.500000 0.600000 0.200000
v 0.400000 0.000000 0.200000
v -0.400000 0.000000 0.200000
v -0.600000 0.100000 0.200000
v -0.700000 0.100000 0.200000
v -0.500000 0.600000 0.200000
v -0.700000 0.600000 0.200000
v 0.400000 0.000000 0.100000
v -0.600000 0.000000 0.000000
v 0.500000 0.100000 -0.100000
v 0.500000 0.100000 -0.000000
v -0.600000 0.100000 -0.100000
v -0.600000 0.100000 -0.000000
v 0.700000 0.100000 -0.000000
v -0.700000 0.100000 -0.000000
v 0.600000 0.200000 -0.100000
v 0.700000 0.200000 -0.100000
v -0.700000 0.200000 -0.000000
v 0.500000 0.400000 -0.100000
v 0.400000 0.400000 -0.200000
v 0.400000 0.400000 -0.100000
v -0.500000 0.400000 -0.100000
v 0.500000 0.300000 0.200000
v 0.400000 0.300000 0.200000
v 0.500000 0.500000 -0.100000
v 0.400000 0.500000 -0.100000
v -0.500000 0.500000 -0.100000
v 0.400000 0.600000 -0.100000
v 0.500000 0.600000 0.100000
v -0.500000 0.600000 0.100000
vt 0.781250 0.562500
vt 0.750000 0.562500
vt 0.750000 0.593750
vt 0.781250 0.593750
vt 0.281250 0.812500
vt 0.281250 0.781250
vt 0.312500 0.781250
vt 0.312500 0.812500
vt 0.718750 0.468750
vt 0.718750 0.500000
vt 0.687500 0.500000
vt 0.687500 0.468750
vt 0.625000 0.343750
vt 0.625000 0.375000
vt 0.718750 0.375000
vt 0.718750 0.343750
vt 0.656250 0.250000
vt 0.625000 0.250000
vt 0.625000 0.187500
vt 0.781250 0.187500
vt 0.343750 0.781250
vt 0.312500 0.781250
vt 0.312500 0.812500
vt 0.343750 0.812500
vt 0.781250 0.718750
vt 0.781250 0.750000
vt 0.750000 0.750000
vt 0.750000 0.718750
vt 0.625000 0.656250
vt 0.718750 0.656250
vt 0.718750 0.625000
vt 0.625000 0.625000
vt 0.750000 0.343750
vt 0.750000 0.375000
vt 0.781250 0.375000
vt 0.781250 0.343750
vt 0.781250 0.468750
vt 0.781250 0.500000
vt 0.750000 0.500000
vt 0.750000 0.468750
vt 0.750000 0.437500
vt 0.750000 0.468750
vt 0.781250 0.468750
vt 0.781250 0.437500
vt 0.718750 0.562500
vt 0.687500 0.562500
vt 0.687500 0.531250
vt 0.718750 0.531250
vt 0.718750 0.281250
vt 0.718750 0.343750
vt 0.750000 0.281250
vt 0.218750 0.375000
vt 0.218750 0.468750
vt 0.468750 0.468750
vt 0.468750 0.375000
vt 0.718750 0.687500
vt 0.562500 0.687500
vt 0.562500 0.750000
vt 0.593750 0.750000
vt 0.187500 0.812500
vt 0.187500 0.781250
vt 0.218750 0.781250
vt 0.218750 0.812500
vt 0.718750 0.437500
vt 0.687500 0.437500
vt 0.687500 0.375000
vt 0.718750 0.375000
vt 0.718750 0.718750
vt 0.718750 0.750000
vt 0.750000 0.750000
vt 0.750000 0.718750
vt 0.562500 0.218750
vt 0.593750 0.250000
vt 0.562500 0.312500
vt 0.531250 0.312500
vt 0.281250 0.375000
vt 0.281250 0.343750
vt 0.531250 0.343750
vt 0.750000 0.687500
vt 0.718750 0.687500
vt 0.718750 0.718750
vt 0.750000 0.718750
vt 0.781250 0.375000
vt 0.781250 0.406250
vt 0.750000 0.406250
vt 0.750000 0.375000
vt 0.281250 0.312500
vt 0.531250 0.187500
vt 0.750000 0.625000
vt 0.718750 0.625000
vt 0.718750 0.562500
vt 0.750000 0.562500
vt 0.781250 0.562500
vt 0.750000 0.562500
vt 0.750000 0.531250
vt 0.781250 0.531250
vt 0.750000 0.718750
vt 0.750000 0.687500
vt 0.781250 0.687500
vt 0.781250 0.718750
vt 0.250000 0.312500
vt 0.250000 0.218750
vt 0.718750 0.687500
vt 0.718750 0.656250
vt 0.750000 0.656250
vt 0.656250 0.468750
vt 0.687500 0.468750
vt 0.687500 0.375000
vt 0.625000 0.406250
vt 0.218750 0.812500
vt 0.218750 0.781250
vt 0.250000 0.781250
vt 0.250000 0.812500
vt 0.718750 0.562500
vt 0.718750 0.593750
vt 0.625000 0.593750
vt 0.625000 0.562500
vt 0.625000 0.562500
vt 0.562500 0.562500
vt 0.562500 0.593750
vt 0.625000 0.656250
vt 0.781250 0.625000
vt 0.781250 0.656250
vt 0.750000 0.656250
vt 0.750000 0.625000
vt 0.375000 0.812500
vt 0.343750 0.812500
vt 0.343750 0.781250
vt 0.375000 0.781250
vt 0.781250 0.687500
vt 0.750000 0.687500
vt 0.750000 0.656250
vt 0.781250 0.656250
vt 0.750000 0.781250
vt 0.718750 0.781250
vt 0.718750 0.750000
vt 0.750000 0.750000
vt 0.750000 0.750000
vt 0.750000 0.781250
vt 0.781250 0.781250
vt 0.781250 0.750000
vt 0.718750 0.281250
vt 0.718750 0.312500
vt 0.625000 0.312500
vt 0.625000 0.281250
vt 0.562500 0.343750
vt 0.625000 0.375000
vt 0.531250 0.750000
vt 0.531250 0.781250
vt 0.500000 0.781250
vt 0.500000 0.718750
vt 0.406250 0.781250
vt 0.375000 0.781250
vt 0.375000 0.812500
vt 0.406250 0.812500
vt 0.500000 0.375000
vt 0.500000 0.468750
vt 0.531250 0.468750
vt 0.562500 0.406250
vt 0.218750 0.250000
vt 0.218750 0.218750
vt 0.625000 0.250000
vt 0.250000 0.187500
vt 0.250000 0.343750
vt 0.187500 0.375000
vt 0.250000 0.593750
vt 0.281250 0.656250
vt 0.781250 0.281250
vt 0.656250 0.281250
vt 0.718750 0.781250
vt 0.593750 0.781250
vt 0.218750 0.781250
vt 0.218750 0.750000
vt 0.250000 0.718750
vt 0.250000 0.562500
vt 0.187500 0.562500
vt 0.187500 0.656250
vt 0.187500 0.687500
vt 0.250000 0.687500
vt 0.187500 0.750000
vt 0.562500 0.687500
vt 0.562500 0.750000
vt 0.625000 0.375000
vt 0.593750 0.406250
vt 0.593750 0.562500
vt 0.593750 0.406250
vt 0.531250 0.562500
vt 0.187500 0.250000
vt 0.562500 0.375000
vt 0.187500 0.468750
vt 0.187500 0.562500
vt 0.500000 0.562500
vt 0.500000 0.468750
vt 0.406250 0.812500
vt 0.406250 0.781250
vt 0.437500 0.781250
vt 0.437500 0.812500
vt 0.593750 0.562500
vt 0.656250 0.562500
vt 0.593750 0.218750
vt 0.562500 0.187500
vt 0.500000 0.687500
vt 0.781250 0.312500
vt 0.750000 0.312500
vt 0.750000 0.281250
vt 0.781250 0.281250
vn 0.0000 1.0000 0.0000
vn 0.0000 -0.0000 -1.0000
vn -1.0000 0.0000 0.0000
vn 1.0000 0.0000 0.0000
vn 0.0000 -1.0000 0.0000
vn 0.0000 0.0000 1.0000
usemtl SteamCleanedMaterial
s off
f 64/1/1 63/2/1 21/3/1 11/4/1
f 21/5/2 22/6/2 58/7/2 11/8/2
f 42/9/3 51/10/3 47/11/3 17/12/3
f 9/13/4 34/14/4 68/15/4 44/16/4
f 56/17/3 53/18/3 43/19/3 45/20/3
f 9/21/1 5/22/1 33/23/1 34/24/1
f 14/25/3 27/26/3 12/27/3 13/28/3
f 4/29/4 33/30/4 5/31/4 41/32/4
f 1/33/4 25/34/4 54/35/4 2/36/4
f 65/37/3 16/38/3 15/39/3 60/40/3
f 6/41/4 7/42/4 23/43/4 8/44/4
f 50/45/5 27/46/5 14/47/5 51/48/5
f 37/49/4 30/50/4 1/33/4 36/51/4
f 46/52/6 32/53/6 33/54/6 4/55/6
f 38/56/4 35/57/4 52/58/4 28/59/4
f 23/60/2 7/61/2 15/62/2 16/63/2
f 53/64/5 51/65/5 42/66/5 43/67/5
f 57/68/4 22/69/4 21/70/4 63/71/4
f 27/72/2 18/73/2 60/74/2 6/75/2
f 66/76/2 64/77/2 6/75/2 8/78/2
f 65/79/1 8/80/1 23/81/1 16/82/1
f 64/83/3 11/84/3 58/85/3 59/86/3
f 59/87/2 26/88/2 6/75/2 64/77/2
f 1/89/5 52/90/5 35/91/5 36/92/5
f 15/93/5 7/94/5 6/95/5 60/96/5
f 31/97/2 51/98/2 53/99/2 56/100/2
f 59/87/2 57/101/2 48/102/2 26/88/2
f 14/103/2 13/104/2 47/105/2 51/98/2
f 61/106/6 62/107/6 40/108/6 36/109/6
f 1/110/2 30/111/2 29/112/2 49/113/2
f 62/114/3 32/115/3 46/116/3 40/117/3
f 45/118/1 44/119/1 68/120/1 20/121/1
f 31/122/3 18/123/3 50/124/3 51/125/3
f 54/126/5 55/127/5 28/128/5 2/129/5
f 19/130/5 18/131/5 31/132/5 56/133/5
f 48/134/5 25/135/5 1/136/5 49/137/5
f 29/138/4 3/139/4 48/140/4 49/141/4
f 39/142/3 67/143/3 10/144/3 61/145/3
f 66/76/2 8/78/2 65/146/2 20/147/2
f 13/148/5 12/149/5 26/150/5 4/151/5
f 62/152/1 61/153/1 10/154/1 32/155/1
f 41/156/6 5/157/6 9/158/6 42/159/6
f 54/160/2 25/161/2 48/102/2 57/101/2
f 20/147/2 60/74/2 18/73/2 19/162/2
f 48/102/2 3/163/2 26/88/2
f 57/101/2 63/164/2 24/165/2
f 67/166/1 66/167/1 20/121/1 68/120/1
f 20/168/3 19/169/3 56/17/3 45/20/3
f 65/146/2 60/74/2 20/147/2
f 66/76/2 24/165/2 63/164/2 64/77/2
f 24/170/4 38/56/4 28/59/4 55/171/4
f 3/172/5 29/173/5 46/174/5
f 39/175/1 38/176/1 24/177/1 67/166/1
f 37/178/5 40/179/5 46/174/5
f 37/178/5 46/174/5 29/173/5 30/180/5
f 17/181/5 47/182/5 13/148/5
f 40/108/6 37/183/6 36/109/6
f 36/109/6 35/184/6 61/106/6
f 45/185/6 43/186/6 9/158/6 44/187/6
f 46/174/5 4/151/5 26/150/5 3/172/5
f 55/188/2 54/160/2 57/101/2 24/165/2
f 43/186/6 42/159/6 9/158/6
f 42/159/6 17/189/6 41/156/6
f 32/53/6 10/190/6 67/191/6
f 68/192/6 34/193/6 33/54/6
f 28/194/2 52/195/2 1/196/2 2/197/2
f 38/198/6 39/199/6 61/106/6 35/184/6
f 27/72/2 50/200/2 18/73/2
f 67/191/6 68/192/6 33/54/6 32/53/6
f 24/177/1 66/167/1 67/166/1
f 26/88/2 12/201/2 27/72/2 6/75/2
f 17/181/5 13/148/5 4/151/5 41/202/5
f 58/203/5 22/204/5 57/205/5 59/206/5
