# Blender v3.1.2 OBJ File: ''
# www.blender.org
mtllib Toaster.mtl
o Toaster_Toaster.001
v 0.500000 0.100000 0.300000
v 0.500000 0.100000 -0.300000
v 0.400000 -0.000000 -0.300000
v 0.200000 0.700000 -0.200000
v 0.200000 0.700000 -0.100000
v 0.200000 0.600000 0.100000
v 0.200000 0.700000 0.200000
v 0.000000 0.600000 -0.100000
v 0.000000 0.600000 0.200000
v 0.000000 0.600000 0.100000
v -0.200000 0.700000 -0.200000
v -0.200000 0.600000 -0.200000
v -0.200000 0.600000 0.200000
v -0.200000 0.600000 0.100000
v -0.200000 0.700000 0.200000
v -0.300000 0.000000 0.300000
v -0.300000 0.000000 0.200000
v -0.300000 0.100000 0.300000
v -0.400000 0.700000 -0.200000
v -0.400000 0.700000 0.200000
v -0.400000 0.800000 -0.100000
v -0.400000 0.800000 0.100000
v 0.400000 0.800000 -0.200000
v 0.400000 0.700000 0.100000
v 0.400000 0.700000 0.200000
v 0.300000 -0.000000 -0.200000
v 0.300000 0.000000 0.200000
v 0.300000 0.000000 0.300000
v 0.300000 0.100000 0.200000
v 0.300000 0.100000 0.300000
v 0.300000 0.700000 -0.100000
v 0.100000 0.600000 -0.200000
v 0.100000 0.700000 0.100000
v -0.100000 0.600000 0.200000
v -0.100000 0.700000 0.200000
v -0.300000 0.600000 -0.100000
v -0.300000 0.700000 -0.200000
v -0.300000 0.700000 -0.100000
v -0.400000 0.100000 -0.200000
v -0.400000 0.600000 0.100000
v -0.500000 0.100000 0.300000
v -0.500000 0.200000 -0.100000
v -0.500000 0.700000 -0.200000
v -0.500000 0.700000 0.200000
v -0.600000 0.700000 0.200000
v 0.300000 -0.000000 -0.300000
v -0.300000 0.100000 -0.300000
v -0.400000 -0.000000 -0.300000
v -0.300000 -0.000000 -0.300000
v -0.500000 0.100000 -0.300000
v 0.500000 0.800000 -0.300000
v -0.500000 0.800000 -0.300000
v -0.500000 0.600000 -0.200000
v -0.600000 0.700000 -0.200000
v 0.300000 0.600000 -0.100000
v 0.400000 0.600000 -0.100000
v 0.400000 0.400000 -0.100000
v 0.400000 0.800000 -0.100000
v 0.400000 0.700000 -0.100000
v 0.200000 0.600000 -0.100000
v 0.000000 0.700000 -0.100000
v -0.100000 0.600000 -0.100000
v -0.100000 0.700000 -0.100000
v -0.200000 0.600000 -0.100000
v -0.200000 0.700000 -0.100000
v -0.400000 0.400000 -0.100000
v -0.400000 0.700000 -0.100000
v -0.400000 0.200000 0.100000
v -0.500000 0.600000 0.100000
v 0.400000 0.000000 0.200000
v 0.300000 0.600000 0.200000
v 0.400000 0.600000 0.200000
v 0.400000 0.400000 0.200000
v 0.300000 0.700000 0.200000
v 0.400000 0.800000 0.200000
v 0.200000 0.600000 0.200000
v 0.100000 0.700000 0.200000
v 0.000000 0.700000 0.200000
v -0.300000 0.600000 0.200000
v -0.300000 0.700000 0.200000
v -0.400000 0.100000 0.200000
v 0.400000 -0.000000 -0.200000
v 0.400000 0.600000 -0.200000
v 0.400000 0.700000 -0.200000
v 0.300000 0.700000 -0.200000
v 0.100000 0.700000 -0.200000
v -0.100000 0.600000 -0.200000
v -0.300000 0.600000 -0.200000
v -0.300000 -0.000000 -0.200000
v -0.400000 0.200000 -0.100000
v -0.400000 0.600000 -0.100000
v -0.500000 0.600000 -0.100000
v 0.400000 0.600000 0.100000
v 0.300000 0.600000 0.100000
v 0.200000 0.700000 0.100000
v -0.100000 0.700000 0.100000
v -0.200000 0.700000 0.100000
v -0.300000 0.700000 0.100000
v -0.500000 0.600000 0.200000
v -0.600000 0.600000 0.200000
v -0.400000 0.000000 0.300000
v -0.400000 0.100000 0.300000
v -0.500000 0.700000 0.300000
v -0.500000 0.800000 0.300000
v -0.400000 -0.000000 -0.200000
v 0.400000 0.000000 0.300000
v -0.400000 0.000000 0.200000
v 0.400000 0.100000 -0.200000
v 0.400000 0.100000 -0.300000
v 0.300000 0.100000 -0.200000
v 0.300000 0.100000 -0.300000
v -0.300000 0.100000 -0.200000
v -0.400000 0.100000 -0.300000
v 0.400000 0.100000 0.200000
v -0.300000 0.100000 0.200000
v 0.400000 0.100000 0.300000
v 0.300000 0.600000 -0.200000
v 0.200000 0.600000 -0.200000
v 0.100000 0.600000 -0.100000
v 0.000000 0.600000 -0.200000
v -0.600000 0.600000 -0.200000
v 0.100000 0.600000 0.100000
v 0.100000 0.600000 0.200000
v -0.100000 0.600000 0.100000
v -0.300000 0.600000 0.100000
v -0.500000 0.200000 0.100000
v 0.400000 0.400000 -0.200000
v -0.400000 0.400000 -0.200000
v 0.400000 0.400000 0.100000
v -0.400000 0.400000 0.100000
v -0.400000 0.400000 0.200000
v 0.100000 0.700000 -0.100000
v 0.000000 0.700000 -0.200000
v -0.100000 0.700000 -0.200000
v 0.300000 0.700000 0.100000
v 0.000000 0.700000 0.100000
v -0.400000 0.800000 -0.200000
v 0.400000 0.800000 0.100000
v -0.400000 0.800000 0.200000
v 0.500000 0.800000 0.300000
vt 0.781250 0.812500
vt 0.781250 0.843750
vt 0.812500 0.843750
vt 0.812500 0.812500
vt 0.718750 0.843750
vt 0.718750 0.875000
vt 0.750000 0.875000
vt 0.750000 0.843750
vt 0.656250 0.843750
vt 0.656250 0.875000
vt 0.687500 0.875000
vt 0.687500 0.843750
vt 0.812500 0.281250
vt 0.781250 0.281250
vt 0.781250 0.250000
vt 0.812500 0.250000
vt 0.343750 0.906250
vt 0.093750 0.906250
vt 0.250000 0.875000
vt 0.281250 0.875000
vt 0.781250 0.218750
vt 0.781250 0.250000
vt 0.812500 0.250000
vt 0.812500 0.218750
vt 0.375000 0.750000
vt 0.375000 0.781250
vt 0.343750 0.781250
vt 0.343750 0.750000
vt 0.875000 0.562500
vt 0.875000 0.468750
vt 0.843750 0.531250
vt 0.843750 0.562500
vt 0.812500 0.406250
vt 0.812500 0.437500
vt 0.843750 0.437500
vt 0.843750 0.406250
vt 0.843750 0.625000
vt 0.812500 0.625000
vt 0.812500 0.593750
vt 0.843750 0.593750
vt 0.843750 0.781250
vt 0.843750 0.812500
vt 0.875000 0.812500
vt 0.875000 0.781250
vt 0.750000 0.531250
vt 0.781250 0.531250
vt 0.562500 0.843750
vt 0.562500 0.875000
vt 0.531250 0.875000
vt 0.531250 0.843750
vt 0.781250 0.281250
vt 0.781250 0.312500
vt 0.812500 0.312500
vt 0.812500 0.281250
vt 0.875000 0.281250
vt 0.875000 0.312500
vt 0.843750 0.312500
vt 0.843750 0.281250
vt 0.843750 0.093750
vt 0.843750 0.156250
vt 0.718750 0.156250
vt 0.718750 0.093750
vt 0.718750 0.281250
vt 0.687500 0.281250
vt 0.687500 0.250000
vt 0.687500 0.125000
vt 0.437500 0.406250
vt 0.437500 0.343750
vt 0.406250 0.468750
vt 0.437500 0.437500
vt 0.500000 0.875000
vt 0.468750 0.875000
vt 0.468750 0.843750
vt 0.500000 0.843750
vt 0.531250 0.843750
vt 0.531250 0.875000
vt 0.500000 0.875000
vt 0.500000 0.843750
vt 0.843750 0.281250
vt 0.812500 0.281250
vt 0.812500 0.312500
vt 0.843750 0.312500
vt 0.750000 0.406250
vt 0.750000 0.281250
vt 0.718750 0.281250
vt 0.718750 0.406250
vt 0.656250 0.843750
vt 0.656250 0.875000
vt 0.625000 0.875000
vt 0.625000 0.843750
vt 0.781250 0.593750
vt 0.781250 0.625000
vt 0.750000 0.625000
vt 0.750000 0.593750
vt 0.500000 0.750000
vt 0.500000 0.718750
vt 0.531250 0.718750
vt 0.531250 0.750000
vt 0.406250 0.281250
vt 0.406250 0.093750
vt 0.437500 0.250000
vt 0.437500 0.281250
vt 0.156250 0.375000
vt 0.125000 0.375000
vt 0.093750 0.375000
vt 0.093750 0.593750
vt 0.781250 0.406250
vt 0.781250 0.437500
vt 0.718750 0.437500
vt 0.718750 0.406250
vt 0.781250 0.156250
vt 0.750000 0.156250
vt 0.750000 0.281250
vt 0.781250 0.281250
vt 0.875000 0.187500
vt 0.875000 0.218750
vt 0.843750 0.218750
vt 0.843750 0.187500
vt 0.375000 0.375000
vt 0.375000 0.343750
vt 0.343750 0.343750
vt 0.343750 0.375000
vt 0.812500 0.375000
vt 0.781250 0.375000
vt 0.781250 0.343750
vt 0.812500 0.343750
vt 0.156250 0.125000
vt 0.343750 0.125000
vt 0.406250 0.343750
vt 0.093750 0.343750
vt 0.375000 0.125000
vt 0.406250 0.125000
vt 0.156250 0.093750
vt 0.125000 0.125000
vt 0.125000 0.093750
vt 0.312500 0.781250
vt 0.093750 0.781250
vt 0.250000 0.750000
vt 0.281250 0.750000
vt 0.718750 0.281250
vt 0.718750 0.156250
vt 0.750000 0.156250
vt 0.750000 0.281250
vt 0.843750 0.250000
vt 0.812500 0.250000
vt 0.812500 0.218750
vt 0.843750 0.218750
vt 0.906250 0.781250
vt 0.906250 0.656250
vt 0.875000 0.718750
vt 0.875000 0.750000
vt 0.843750 0.375000
vt 0.812500 0.375000
vt 0.812500 0.343750
vt 0.843750 0.343750
vt 0.656250 0.125000
vt 0.656250 0.250000
vt 0.187500 0.875000
vt 0.187500 0.843750
vt 0.218750 0.843750
vt 0.218750 0.875000
vt 0.812500 0.218750
vt 0.812500 0.187500
vt 0.843750 0.187500
vt 0.843750 0.218750
vt 0.437500 0.093750
vt 0.437500 0.125000
vt 0.406250 0.875000
vt 0.406250 0.843750
vt 0.437500 0.843750
vt 0.437500 0.875000
vt 0.750000 0.843750
vt 0.718750 0.843750
vt 0.718750 0.812500
vt 0.750000 0.812500
vt 0.406250 0.468750
vt 0.406250 0.656250
vt 0.625000 0.656250
vt 0.625000 0.468750
vt 0.812500 0.593750
vt 0.812500 0.625000
vt 0.781250 0.625000
vt 0.781250 0.593750
vt 0.093750 0.125000
vt 0.125000 0.656250
vt 0.125000 0.718750
vt 0.093750 0.593750
vt 0.687500 0.843750
vt 0.656250 0.843750
vt 0.656250 0.812500
vt 0.687500 0.812500
vt 0.812500 0.406250
vt 0.812500 0.437500
vt 0.781250 0.437500
vt 0.781250 0.406250
vt 0.687500 0.343750
vt 0.687500 0.406250
vt 0.812500 0.718750
vt 0.812500 0.750000
vt 0.843750 0.750000
vt 0.843750 0.718750
vt 0.875000 0.375000
vt 0.875000 0.343750
vt 0.843750 0.343750
vt 0.843750 0.375000
vt 0.718750 0.562500
vt 0.687500 0.562500
vt 0.625000 0.593750
vt 0.750000 0.562500
vt 0.468750 0.281250
vt 0.468750 0.250000
vt 0.656250 0.281250
vt 0.875000 0.437500
vt 0.875000 0.406250
vt 0.843750 0.406250
vt 0.843750 0.437500
vt 0.875000 0.281250
vt 0.843750 0.281250
vt 0.843750 0.250000
vt 0.875000 0.250000
vt 0.781250 0.781250
vt 0.781250 0.812500
vt 0.812500 0.812500
vt 0.812500 0.781250
vt 0.281250 0.843750
vt 0.250000 0.843750
vt 0.593750 0.750000
vt 0.562500 0.750000
vt 0.562500 0.718750
vt 0.593750 0.718750
vt 0.875000 0.312500
vt 0.843750 0.312500
vt 0.843750 0.343750
vt 0.875000 0.343750
vt 0.843750 0.812500
vt 0.843750 0.843750
vt 0.875000 0.843750
vt 0.875000 0.812500
vt 0.375000 0.718750
vt 0.375000 0.750000
vt 0.312500 0.750000
vt 0.312500 0.718750
vt 0.468750 0.843750
vt 0.437500 0.843750
vt 0.437500 0.875000
vt 0.468750 0.875000
vt 0.312500 0.625000
vt 0.343750 0.625000
vt 0.343750 0.687500
vt 0.312500 0.687500
vt 0.406250 0.781250
vt 0.656250 0.781250
vt 0.843750 0.250000
vt 0.843750 0.281250
vt 0.812500 0.281250
vt 0.812500 0.250000
vt 0.687500 0.750000
vt 0.656250 0.750000
vt 0.656250 0.781250
vt 0.718750 0.750000
vt 0.468750 0.125000
vt 0.812500 0.343750
vt 0.781250 0.343750
vt 0.781250 0.312500
vt 0.812500 0.312500
vt 0.781250 0.281250
vt 0.781250 0.406250
vt 0.750000 0.406250
vt 0.750000 0.281250
vt 0.718750 0.843750
vt 0.718750 0.875000
vt 0.875000 0.093750
vt 0.875000 0.125000
vt 0.843750 0.125000
vt 0.843750 0.093750
vt 0.718750 0.531250
vt 0.125000 0.343750
vt 0.156250 0.343750
vt 0.843750 0.593750
vt 0.843750 0.625000
vt 0.875000 0.625000
vt 0.875000 0.593750
vt 0.656250 0.781250
vt 0.406250 0.781250
vt 0.406250 0.812500
vt 0.656250 0.812500
vt 0.656250 0.812500
vt 0.406250 0.812500
vt 0.406250 0.843750
vt 0.656250 0.843750
vt 0.687500 0.718750
vt 0.718750 0.718750
vt 0.875000 0.218750
vt 0.843750 0.218750
vt 0.843750 0.250000
vt 0.875000 0.250000
vt 0.843750 0.812500
vt 0.843750 0.843750
vt 0.812500 0.843750
vt 0.812500 0.812500
vt 0.406250 0.750000
vt 0.437500 0.750000
vt 0.468750 0.750000
vt 0.812500 0.156250
vt 0.781250 0.156250
vt 0.781250 0.218750
vt 0.812500 0.218750
vt 0.750000 0.750000
vt 0.781250 0.750000
vt 0.406250 0.656250
vt 0.656250 0.656250
vt 0.625000 0.875000
vt 0.593750 0.875000
vt 0.593750 0.843750
vt 0.625000 0.843750
vt 0.625000 0.750000
vt 0.656250 0.750000
vt 0.093750 0.781250
vt 0.343750 0.781250
vt 0.875000 0.593750
vt 0.781250 0.562500
vt 0.750000 0.781250
vt 0.656250 0.781250
vt 0.656250 0.812500
vt 0.781250 0.812500
vt 0.250000 0.625000
vt 0.250000 0.656250
vt 0.281250 0.625000
vt 0.281250 0.593750
vt 0.312500 0.593750
vt 0.781250 0.781250
vt 0.343750 0.875000
vt 0.312500 0.875000
vt 0.312500 0.843750
vt 0.406250 0.562500
vt 0.406250 0.375000
vt 0.375000 0.781250
vt 0.343750 0.781250
vt 0.343750 0.812500
vt 0.375000 0.812500
vt 0.718750 0.843750
vt 0.687500 0.843750
vt 0.687500 0.812500
vt 0.718750 0.812500
vt 0.843750 0.187500
vt 0.843750 0.156250
vt 0.875000 0.156250
vt 0.875000 0.187500
vt 0.625000 0.468750
vt 0.687500 0.531250
vt 0.625000 0.718750
vt 0.656250 0.562500
vt 0.625000 0.562500
vt 0.812500 0.562500
vt 0.468750 0.718750
vt 0.437500 0.718750
vt 0.406250 0.718750
vt 0.343750 0.593750
vt 0.375000 0.593750
vt 0.718750 0.593750
vt 0.625000 0.593750
vt 0.625000 0.625000
vt 0.718750 0.625000
vt 0.343750 0.093750
vt 0.375000 0.093750
vt 0.156250 0.875000
vt 0.687500 0.437500
vt 0.718750 0.468750
vt 0.406250 0.281250
vt 0.437500 0.312500
vt 0.750000 0.718750
vt 0.781250 0.718750
vt 0.656250 0.656250
vt 0.375000 0.812500
vt 0.343750 0.812500
vt 0.343750 0.843750
vt 0.375000 0.843750
vt 0.718750 0.281250
vt 0.687500 0.312500
vt 0.156250 0.843750
vt 0.812500 0.531250
vt 0.656250 0.718750
vt 0.656250 0.531250
vt 0.250000 0.718750
vt 0.406250 0.593750
vt 0.375000 0.718750
vt 0.343750 0.718750
vt 0.125000 0.843750
vt 0.093750 0.843750
vt 0.093750 0.875000
vt 0.125000 0.875000
vt 0.843750 0.781250
vt 0.843750 0.812500
vt 0.812500 0.812500
vt 0.812500 0.781250
vt 0.718750 0.093750
vt 0.687500 0.093750
vt 0.593750 0.843750
vt 0.593750 0.875000
vt 0.562500 0.875000
vt 0.562500 0.843750
vt 0.656250 0.093750
vt 0.468750 0.093750
vt 0.750000 0.625000
vt 0.750000 0.593750
vt 0.625000 0.531250
vt 0.843750 0.187500
vt 0.843750 0.156250
vt 0.812500 0.156250
vt 0.812500 0.187500
vt 0.843750 0.312500
vt 0.812500 0.312500
vt 0.812500 0.343750
vt 0.843750 0.343750
vn 1.0000 0.0000 0.0000
vn 0.0000 -1.0000 0.0000
vn 0.0000 -0.0000 -1.0000
vn -1.0000 0.0000 0.0000
vn 0.0000 0.0000 1.0000
vn 0.0000 1.0000 0.0000
usemtl ToasterCleanedMaterial
s off
f 8/1/1 120/2/1 133/3/1 61/4/1
f 76/5/1 6/6/1 95/7/1 7/8/1
f 13/9/1 14/10/1 97/11/1 15/12/1
f 27/13/2 70/14/2 106/15/2 28/16/2
f 139/17/3 75/18/3 35/19/3 15/20/3
f 106/21/1 70/22/1 114/23/1 116/24/1
f 58/25/4 23/26/4 84/27/4 59/28/4
f 19/29/5 128/30/5 88/31/5 37/32/5
f 89/33/1 49/34/1 47/35/1 112/36/1
f 107/37/2 17/38/2 16/39/2 101/40/2
f 64/41/1 12/42/1 11/43/1 65/44/1
f 120/45/5 87/46/5 128/30/5
f 80/47/4 98/48/4 125/49/4 79/50/4
f 16/51/1 17/52/1 115/53/1 18/54/1
f 132/55/4 86/56/4 32/57/4 119/58/4
f 40/59/4 91/60/4 90/61/4 68/62/4
f 50/63/2 113/64/2 39/65/2 81/66/2
f 58/67/6 138/68/6 51/69/6 23/70/6
f 124/71/2 10/72/2 9/73/2 34/74/2
f 77/75/4 33/76/4 122/77/4 123/78/4
f 132/79/6 5/80/6 4/81/6 86/82/6
f 92/83/5 42/84/5 90/85/5 91/86/5
f 74/87/4 135/88/4 94/89/4 71/90/4
f 102/91/4 81/92/4 107/93/4 101/94/4
f 132/95/3 119/96/3 8/97/3 61/98/3
f 2/99/2 1/100/2 108/101/2 109/102/2
f 30/103/5 116/104/5 1/105/5 140/106/5
f 72/107/4 93/108/4 129/109/4 73/110/4
f 45/111/6 44/112/6 43/113/6 54/114/6
f 38/115/4 37/116/4 88/117/4 36/118/4
f 102/119/5 101/120/5 16/121/5 18/122/5
f 117/123/2 83/124/2 56/125/2 55/126/2
f 111/127/3 47/128/3 52/129/3 51/130/3
f 113/131/3 50/132/3 52/129/3 47/128/3
f 46/133/3 111/127/3 109/134/3 3/135/3
f 52/136/4 50/137/4 53/138/4 43/139/4
f 40/140/3 68/141/3 126/142/3 69/143/3
f 32/144/2 118/145/2 60/146/2 119/147/2
f 22/148/5 130/149/5 125/150/5 98/151/5
f 94/152/2 93/153/2 72/154/2 71/155/2
f 115/156/2 81/66/2 39/65/2 112/157/2
f 77/158/3 123/159/3 9/160/3 78/161/3
f 114/162/3 70/163/3 27/164/3 29/165/3
f 108/101/2 1/100/2 116/166/2 114/167/2
f 115/168/3 17/169/3 107/170/3 81/171/3
f 87/172/2 120/173/2 8/174/2 62/175/2
f 1/176/1 2/177/1 51/178/1 140/179/1
f 39/180/4 113/181/4 48/182/4 105/183/4
f 109/134/3 111/127/3 51/130/3 2/184/3
f 126/185/4 42/186/4 50/137/4 41/187/4
f 88/188/2 12/189/2 64/190/2 36/191/2
f 30/192/4 29/193/4 27/194/4 28/195/4
f 22/196/6 138/68/6 58/67/6 21/197/6
f 124/198/5 96/199/5 97/200/5 14/201/5
f 39/202/5 105/203/5 89/204/5 112/205/5
f 86/206/5 4/207/5 23/208/5 133/209/5
f 111/210/2 110/211/2 112/157/2 47/212/2
f 45/213/5 100/214/5 99/215/5 44/216/5
f 48/217/2 49/218/2 89/219/2 105/220/2
f 82/221/1 3/222/1 109/223/1 108/224/1
f 13/225/3 15/20/3 35/19/3 34/226/3
f 65/227/3 63/228/3 62/229/3 64/230/3
f 38/231/6 65/232/6 11/233/6 37/234/6
f 60/235/1 118/236/1 4/237/1 5/238/1
f 56/239/4 83/240/4 127/241/4 57/242/4
f 35/243/6 78/244/6 136/245/6 96/246/6
f 40/247/2 69/248/2 92/249/2 91/250/2
f 58/251/3 63/228/3 65/227/3 21/252/3
f 75/253/4 138/254/4 24/255/4 25/256/4
f 135/257/5 24/258/5 138/259/5 95/260/5
f 29/261/2 115/156/2 112/157/2 110/211/2
f 46/262/2 3/263/2 82/264/2 26/265/2
f 45/266/4 54/267/4 121/268/4 100/269/4
f 80/270/6 15/12/6 97/11/6 98/271/6
f 63/272/4 134/273/4 87/274/4 62/275/4
f 133/209/5 120/45/5 32/276/5 86/206/5
f 106/277/5 116/104/5 30/103/5 28/278/5
f 9/279/1 10/280/1 136/281/1 78/282/1
f 66/283/6 57/284/6 127/285/6 128/286/6
f 131/287/6 73/288/6 129/289/6 130/290/6
f 94/291/5 135/257/5 95/260/5 6/292/5
f 63/293/6 61/294/6 133/295/6 134/296/6
f 31/297/4 85/298/4 117/299/4 55/300/4
f 58/251/3 59/301/3 31/302/3 5/303/3
f 126/304/6 68/305/6 90/306/6 42/307/6
f 33/308/5 95/260/5 138/259/5 136/309/5
f 8/97/3 119/96/3 57/310/3 66/311/3
f 125/312/2 14/313/2 13/314/2 79/315/2
f 38/316/3 67/317/3 21/252/3 65/227/3
f 73/318/3 131/319/3 9/160/3 123/159/3
f 133/209/5 23/208/5 137/320/5 134/321/5
f 20/322/1 131/323/1 130/324/1 22/325/1
f 41/187/4 99/326/4 69/327/4 126/185/4
f 98/151/5 97/200/5 138/259/5 22/148/5
f 44/328/4 103/329/4 104/330/4 52/136/4
f 139/331/1 20/322/1 22/325/1
f 20/332/3 80/333/3 79/334/3 131/319/3
f 103/335/5 41/336/5 102/119/5 18/122/5
f 80/333/3 20/332/3 139/17/3 15/20/3
f 31/337/6 59/338/6 84/339/6 85/340/6
f 122/341/2 6/342/2 76/343/2 123/344/2
f 130/149/5 124/198/5 14/201/5 125/150/5
f 43/345/3 53/346/3 121/347/3 54/348/3
f 127/349/5 118/350/5 32/276/5
f 62/229/3 66/311/3 36/351/3 64/230/3
f 85/352/5 84/353/5 23/208/5 4/207/5
f 11/354/5 134/321/5 137/320/5
f 132/95/3 61/98/3 58/251/3 5/303/3
f 57/310/3 60/355/3 55/356/3 56/357/3
f 43/139/4 44/328/4 52/136/4
f 69/248/2 99/358/2 100/359/2 92/249/2
f 108/101/2 114/167/2 29/261/2 110/211/2
f 30/103/5 140/106/5 103/335/5 18/122/5
f 67/360/1 66/361/1 128/362/1 19/363/1
f 47/128/3 49/364/3 48/365/3 113/131/3
f 7/366/3 77/158/3 78/161/3 75/18/3
f 21/197/6 137/367/6 52/368/6 22/196/6
f 137/367/6 23/70/6 51/69/6 52/368/6
f 140/369/6 51/69/6 138/68/6 75/370/6
f 6/292/5 122/371/5 10/372/5 129/373/5
f 77/374/6 7/375/6 95/376/6 33/377/6
f 22/196/6 52/368/6 104/378/6 139/379/6
f 123/159/3 76/380/3 73/318/3
f 130/149/5 129/373/5 10/372/5 124/198/5
f 66/311/3 67/317/3 38/316/3 36/351/3
f 128/30/5 87/46/5 12/381/5 88/31/5
f 131/319/3 34/226/3 9/160/3
f 78/161/3 35/19/3 75/18/3
f 138/259/5 97/200/5 96/199/5 136/309/5
f 12/381/5 87/46/5 134/321/5 11/354/5
f 94/291/5 6/292/5 129/373/5 93/382/5
f 4/207/5 118/350/5 117/383/5 85/352/5
f 53/138/4 50/137/4 42/186/4 92/384/4
f 140/106/5 104/385/5 103/335/5
f 19/29/5 37/32/5 11/354/5 137/320/5
f 58/251/3 61/98/3 63/228/3
f 121/386/2 53/387/2 92/249/2 100/359/2
f 76/380/3 71/388/3 72/389/3 73/318/3
f 127/349/5 32/276/5 120/45/5 128/30/5
f 136/309/5 10/372/5 122/371/5 33/308/5
f 60/355/3 57/310/3 119/96/3
f 13/225/3 34/226/3 131/319/3 79/334/3
f 62/229/3 8/97/3 66/311/3
f 60/355/3 5/303/3 31/302/3 55/356/3
f 75/18/3 25/390/3 74/391/3 7/366/3
f 75/370/6 139/379/6 104/378/6 140/369/6
f 110/392/4 111/393/4 46/394/4 26/395/4
f 41/396/2 50/63/2 81/66/2 102/397/2
f 35/398/4 96/399/4 124/400/4 34/401/4
f 18/402/2 115/156/2 29/261/2 30/403/2
f 19/363/1 137/404/1 21/405/1 67/360/1
f 117/383/5 118/350/5 127/349/5 83/406/5
f 74/391/3 71/388/3 76/380/3 7/366/3
f 103/329/4 44/328/4 99/326/4 41/187/4
f 110/407/5 26/408/5 82/409/5 108/410/5
f 74/411/6 25/412/6 24/413/6 135/414/6
