# MagicaVoxel @ Ephtracy

# group
o 

# material
mtllib Bottle.mtl
usemtl palette

# normals
vn -1 0 0
vn 1 0 0
vn 0 0 1
vn 0 0 -1
vn 0 -1 0
vn 0 1 0

# texcoords
vt 0.0136719 0.5
vt 0.0175781 0.5
vt 0.0488281 0.5
vt 0.0527344 0.5
vt 0.0605469 0.5

# verts
v -0.3 0 0.2
v -0.3 0 -0.2
v -0.3 0.1 0.2
v -0.3 0.1 -0.2
v -0.3 0.3 0.2
v -0.3 0.3 -0.2
v -0.3 0.7 0.2
v -0.3 0.7 -0.2
v -0.3 1 0.2
v -0.3 1 -0.2
v -0.2 0 0.3
v -0.2 0 0.2
v -0.2 0 -0.2
v -0.2 0 -0.3
v -0.2 0.1 0.3
v -0.2 0.1 0.2
v -0.2 0.1 -0.2
v -0.2 0.1 -0.3
v -0.2 0.3 0.3
v -0.2 0.3 0.2
v -0.2 0.3 -0.2
v -0.2 0.3 -0.3
v -0.2 0.4 0.1
v -0.2 0.4 0
v -0.2 0.4 -0.1
v -0.2 0.4 -0.2
v -0.2 0.5 0.2
v -0.2 0.5 0.1
v -0.2 0.5 0
v -0.2 0.5 -0.1
v -0.2 0.5 -0.2
v -0.2 0.6 0.2
v -0.2 0.6 0.1
v -0.2 0.6 0
v -0.2 0.6 -0.1
v -0.2 0.7 0.3
v -0.2 0.7 0.2
v -0.2 0.7 0.1
v -0.2 0.7 0
v -0.2 0.7 -0.2
v -0.2 0.7 -0.3
v -0.2 1 0.3
v -0.2 1 0.2
v -0.2 1 -0.2
v -0.2 1 -0.3
v -0.1 1 0.1
v -0.1 1 -0.1
v -0.1 1.1 0.1
v -0.1 1.1 -0.1
v 0.1 1 0.1
v 0.1 1 -0.1
v 0.1 1.1 0.1
v 0.1 1.1 -0.1
v 0.2 0 0.3
v 0.2 0 0.2
v 0.2 0 -0.2
v 0.2 0 -0.3
v 0.2 0.1 0.3
v 0.2 0.1 0.2
v 0.2 0.1 -0.2
v 0.2 0.1 -0.3
v 0.2 0.3 0.3
v 0.2 0.3 0.2
v 0.2 0.3 0
v 0.2 0.3 -0.1
v 0.2 0.3 -0.2
v 0.2 0.3 -0.3
v 0.2 0.4 0.1
v 0.2 0.4 0
v 0.2 0.4 -0.1
v 0.2 0.5 0.2
v 0.2 0.5 0.1
v 0.2 0.5 0
v 0.2 0.5 -0.1
v 0.2 0.5 -0.2
v 0.2 0.6 0.2
v 0.2 0.6 0.1
v 0.2 0.6 0
v 0.2 0.6 -0.1
v 0.2 0.6 -0.2
v 0.2 0.7 0.3
v 0.2 0.7 0.2
v 0.2 0.7 -0.2
v 0.2 0.7 -0.3
v 0.2 1 0.3
v 0.2 1 0.2
v 0.2 1 -0.2
v 0.2 1 -0.3
v 0.3 0 0.2
v 0.3 0 -0.2
v 0.3 0.1 0.2
v 0.3 0.1 -0.2
v 0.3 0.3 0.2
v 0.3 0.3 -0.2
v 0.3 0.7 0.2
v 0.3 0.7 -0.2
v 0.3 1 0.2
v 0.3 1 -0.2
v -0.2 0 0.3
v -0.2 0.1 0.3
v -0.2 0.3 0.3
v -0.2 0.7 0.3
v -0.2 1 0.3
v 0.2 0 0.3
v 0.2 0.1 0.3
v 0.2 0.3 0.3
v 0.2 0.7 0.3
v 0.2 1 0.3
v -0.3 0 0.2
v -0.3 0.1 0.2
v -0.3 0.3 0.2
v -0.3 0.7 0.2
v -0.3 1 0.2
v -0.2 0 0.2
v -0.2 0.1 0.2
v -0.2 0.3 0.2
v -0.2 0.5 0.2
v -0.2 0.6 0.2
v -0.2 0.7 0.2
v -0.2 1 0.2
v -0.1 0.3 0.2
v -0.1 0.4 0.2
v -0.1 0.5 0.2
v -0.1 0.6 0.2
v 0 0.3 0.2
v 0 0.4 0.2
v 0 0.5 0.2
v 0 0.6 0.2
v 0.1 0.4 0.2
v 0.1 0.5 0.2
v 0.1 0.6 0.2
v 0.2 0 0.2
v 0.2 0.1 0.2
v 0.2 0.3 0.2
v 0.2 0.5 0.2
v 0.2 0.6 0.2
v 0.2 0.7 0.2
v 0.2 1 0.2
v 0.3 0 0.2
v 0.3 0.1 0.2
v 0.3 0.3 0.2
v 0.3 0.7 0.2
v 0.3 1 0.2
v -0.1 1 0.1
v -0.1 1.1 0.1
v 0.1 1 0.1
v 0.1 1.1 0.1
v -0.1 1 -0.1
v -0.1 1.1 -0.1
v 0.1 1 -0.1
v 0.1 1.1 -0.1
v -0.3 0 -0.2
v -0.3 0.1 -0.2
v -0.3 0.3 -0.2
v -0.3 0.7 -0.2
v -0.3 1 -0.2
v -0.2 0 -0.2
v -0.2 0.1 -0.2
v -0.2 0.3 -0.2
v -0.2 0.4 -0.2
v -0.2 0.5 -0.2
v -0.2 0.7 -0.2
v -0.2 1 -0.2
v -0.1 0.4 -0.2
v -0.1 0.5 -0.2
v -0.1 0.6 -0.2
v 0 0.4 -0.2
v 0 0.5 -0.2
v 0 0.6 -0.2
v 0 0.7 -0.2
v 0.1 0.4 -0.2
v 0.1 0.5 -0.2
v 0.1 0.6 -0.2
v 0.1 0.7 -0.2
v 0.2 0 -0.2
v 0.2 0.1 -0.2
v 0.2 0.3 -0.2
v 0.2 0.5 -0.2
v 0.2 0.6 -0.2
v 0.2 0.7 -0.2
v 0.2 1 -0.2
v 0.3 0 -0.2
v 0.3 0.1 -0.2
v 0.3 0.3 -0.2
v 0.3 0.7 -0.2
v 0.3 1 -0.2
v -0.2 0 -0.3
v -0.2 0.1 -0.3
v -0.2 0.3 -0.3
v -0.2 0.7 -0.3
v -0.2 1 -0.3
v 0.2 0 -0.3
v 0.2 0.1 -0.3
v 0.2 0.3 -0.3
v 0.2 0.7 -0.3
v 0.2 1 -0.3
v -0.2 0 0.3
v 0.2 0 0.3
v -0.3 0 0.2
v -0.2 0 0.2
v 0.2 0 0.2
v 0.3 0 0.2
v -0.3 0 -0.2
v -0.2 0 -0.2
v 0.2 0 -0.2
v 0.3 0 -0.2
v -0.2 0 -0.3
v 0.2 0 -0.3
v -0.2 0.7 0.3
v 0.2 0.7 0.3
v -0.3 0.7 0.2
v -0.2 0.7 0.2
v 0.2 0.7 0.2
v 0.3 0.7 0.2
v -0.2 0.7 0.1
v -0.2 0.7 0
v -0.3 0.7 -0.2
v -0.2 0.7 -0.2
v 0 0.7 -0.2
v 0.1 0.7 -0.2
v 0.2 0.7 -0.2
v 0.3 0.7 -0.2
v -0.2 0.7 -0.3
v 0.2 0.7 -0.3
v -0.2 0.3 0.3
v 0.2 0.3 0.3
v -0.3 0.3 0.2
v -0.2 0.3 0.2
v -0.1 0.3 0.2
v 0 0.3 0.2
v 0.2 0.3 0.2
v 0.3 0.3 0.2
v 0.2 0.3 0
v 0.2 0.3 -0.1
v -0.3 0.3 -0.2
v -0.2 0.3 -0.2
v 0.2 0.3 -0.2
v 0.3 0.3 -0.2
v -0.2 0.3 -0.3
v 0.2 0.3 -0.3
v -0.2 1 0.3
v 0.2 1 0.3
v -0.3 1 0.2
v -0.2 1 0.2
v 0.2 1 0.2
v 0.3 1 0.2
v -0.1 1 0.1
v 0.1 1 0.1
v -0.1 1 -0.1
v 0.1 1 -0.1
v -0.3 1 -0.2
v -0.2 1 -0.2
v 0.2 1 -0.2
v 0.3 1 -0.2
v -0.2 1 -0.3
v 0.2 1 -0.3
v -0.1 1.1 0.1
v 0.1 1.1 0.1
v -0.1 1.1 -0.1
v 0.1 1.1 -0.1

# faces
f 3/3/1 2/3/1 1/3/1
f 4/3/1 2/3/1 3/3/1
f 5/4/1 4/4/1 3/4/1
f 6/4/1 4/4/1 5/4/1
f 9/4/1 8/4/1 7/4/1
f 10/4/1 8/4/1 9/4/1
f 15/3/1 12/3/1 11/3/1
f 16/3/1 12/3/1 15/3/1
f 17/3/1 14/3/1 13/3/1
f 18/3/1 14/3/1 17/3/1
f 19/4/1 16/4/1 15/4/1
f 20/4/1 16/4/1 19/4/1
f 21/4/1 18/4/1 17/4/1
f 22/4/1 18/4/1 21/4/1
f 23/5/1 21/5/1 20/5/1
f 24/5/1 21/5/1 23/5/1
f 25/5/1 21/5/1 24/5/1
f 26/5/1 21/5/1 25/5/1
f 27/5/1 23/5/1 20/5/1
f 28/4/1 24/4/1 23/4/1
f 28/5/1 23/5/1 27/5/1
f 29/5/1 25/5/1 24/5/1
f 29/4/1 24/4/1 28/4/1
f 30/2/1 26/2/1 25/2/1
f 30/5/1 25/5/1 29/5/1
f 31/2/1 26/2/1 30/2/1
f 32/4/1 28/4/1 27/4/1
f 33/5/1 29/5/1 28/5/1
f 33/4/1 28/4/1 32/4/1
f 34/2/1 30/2/1 29/2/1
f 34/5/1 29/5/1 33/5/1
f 35/1/1 31/1/1 30/1/1
f 35/2/1 30/2/1 34/2/1
f 37/5/1 33/5/1 32/5/1
f 38/2/1 34/2/1 33/2/1
f 38/5/1 33/5/1 37/5/1
f 39/1/1 35/1/1 34/1/1
f 39/2/1 34/2/1 38/2/1
f 40/1/1 31/1/1 35/1/1
f 40/1/1 35/1/1 39/1/1
f 42/4/1 37/4/1 36/4/1
f 43/4/1 37/4/1 42/4/1
f 44/4/1 41/4/1 40/4/1
f 45/4/1 41/4/1 44/4/1
f 48/2/1 47/2/1 46/2/1
f 49/2/1 47/2/1 48/2/1
f 50/2/2 51/2/2 52/2/2
f 52/2/2 51/2/2 53/2/2
f 54/3/2 55/3/2 58/3/2
f 58/3/2 55/3/2 59/3/2
f 56/3/2 57/3/2 60/3/2
f 60/3/2 57/3/2 61/3/2
f 58/4/2 59/4/2 62/4/2
f 62/4/2 59/4/2 63/4/2
f 60/4/2 61/4/2 66/4/2
f 66/4/2 61/4/2 67/4/2
f 63/1/2 64/1/2 68/1/2
f 64/2/2 65/2/2 69/2/2
f 68/1/2 64/1/2 69/1/2
f 65/5/2 66/5/2 70/5/2
f 69/2/2 65/2/2 70/2/2
f 63/1/2 68/1/2 71/1/2
f 68/2/2 69/2/2 72/2/2
f 71/1/2 68/1/2 72/1/2
f 69/4/2 70/4/2 73/4/2
f 72/2/2 69/2/2 73/2/2
f 70/5/2 66/5/2 74/5/2
f 73/4/2 70/4/2 74/4/2
f 74/5/2 66/5/2 75/5/2
f 71/2/2 72/2/2 76/2/2
f 72/4/2 73/4/2 77/4/2
f 76/2/2 72/2/2 77/2/2
f 73/5/2 74/5/2 78/5/2
f 77/4/2 73/4/2 78/4/2
f 74/4/2 75/4/2 79/4/2
f 78/5/2 74/5/2 79/5/2
f 79/4/2 75/4/2 80/4/2
f 76/5/2 77/5/2 82/5/2
f 77/5/2 78/5/2 82/5/2
f 79/5/2 80/5/2 82/5/2
f 78/5/2 79/5/2 82/5/2
f 82/5/2 80/5/2 83/5/2
f 81/4/2 82/4/2 85/4/2
f 85/4/2 82/4/2 86/4/2
f 83/4/2 84/4/2 87/4/2
f 87/4/2 84/4/2 88/4/2
f 89/3/2 90/3/2 91/3/2
f 91/3/2 90/3/2 92/3/2
f 91/4/2 92/4/2 93/4/2
f 93/4/2 92/4/2 94/4/2
f 95/4/2 96/4/2 97/4/2
f 97/4/2 96/4/2 98/4/2
f 104/3/3 100/3/3 99/3/3
f 105/4/3 101/4/3 100/4/3
f 105/3/3 100/3/3 104/3/3
f 106/4/3 101/4/3 105/4/3
f 107/4/3 103/4/3 102/4/3
f 108/4/3 103/4/3 107/4/3
f 114/3/3 110/3/3 109/3/3
f 115/4/3 111/4/3 110/4/3
f 115/3/3 110/3/3 114/3/3
f 116/4/3 111/4/3 115/4/3
f 119/4/3 113/4/3 112/4/3
f 120/4/3 113/4/3 119/4/3
f 121/5/3 117/5/3 116/5/3
f 122/5/3 117/5/3 121/5/3
f 123/4/3 118/4/3 117/4/3
f 123/5/3 117/5/3 122/5/3
f 124/5/3 119/5/3 118/5/3
f 124/4/3 118/4/3 123/4/3
f 125/2/3 122/2/3 121/2/3
f 126/4/3 123/4/3 122/4/3
f 126/2/3 122/2/3 125/2/3
f 127/5/3 124/5/3 123/5/3
f 127/4/3 123/4/3 126/4/3
f 128/5/3 119/5/3 124/5/3
f 128/5/3 124/5/3 127/5/3
f 129/2/3 127/2/3 126/2/3
f 129/1/3 126/1/3 125/1/3
f 130/4/3 128/4/3 127/4/3
f 130/2/3 127/2/3 129/2/3
f 131/5/3 119/5/3 128/5/3
f 131/4/3 128/4/3 130/4/3
f 134/1/3 130/1/3 129/1/3
f 134/1/3 129/1/3 125/1/3
f 135/2/3 131/2/3 130/2/3
f 135/1/3 130/1/3 134/1/3
f 136/5/3 119/5/3 131/5/3
f 136/2/3 131/2/3 135/2/3
f 137/5/3 119/5/3 136/5/3
f 139/3/3 133/3/3 132/3/3
f 140/4/3 134/4/3 133/4/3
f 140/3/3 133/3/3 139/3/3
f 141/4/3 134/4/3 140/4/3
f 142/4/3 138/4/3 137/4/3
f 143/4/3 138/4/3 142/4/3
f 146/2/3 145/2/3 144/2/3
f 147/2/3 145/2/3 146/2/3
f 148/2/4 149/2/4 150/2/4
f 150/2/4 149/2/4 151/2/4
f 152/3/4 153/3/4 157/3/4
f 153/4/4 154/4/4 158/4/4
f 157/3/4 153/3/4 158/3/4
f 158/4/4 154/4/4 159/4/4
f 155/4/4 156/4/4 162/4/4
f 162/4/4 156/4/4 163/4/4
f 160/2/4 161/2/4 164/2/4
f 159/5/4 160/5/4 164/5/4
f 161/1/4 162/1/4 165/1/4
f 164/2/4 161/2/4 165/2/4
f 165/1/4 162/1/4 166/1/4
f 159/5/4 164/5/4 167/5/4
f 164/5/4 165/5/4 167/5/4
f 165/2/4 166/2/4 168/2/4
f 167/5/4 165/5/4 168/5/4
f 166/1/4 162/1/4 169/1/4
f 168/2/4 166/2/4 169/2/4
f 169/1/4 162/1/4 170/1/4
f 167/4/4 168/4/4 171/4/4
f 159/5/4 167/5/4 171/5/4
f 168/5/4 169/5/4 172/5/4
f 171/4/4 168/4/4 172/4/4
f 169/2/4 170/2/4 173/2/4
f 172/5/4 169/5/4 173/5/4
f 173/2/4 170/2/4 174/2/4
f 171/5/4 172/5/4 177/5/4
f 159/5/4 171/5/4 177/5/4
f 172/4/4 173/4/4 178/4/4
f 177/5/4 172/5/4 178/5/4
f 173/5/4 174/5/4 179/5/4
f 178/4/4 173/4/4 179/4/4
f 179/5/4 174/5/4 180/5/4
f 175/3/4 176/3/4 182/3/4
f 176/4/4 177/4/4 183/4/4
f 182/3/4 176/3/4 183/3/4
f 183/4/4 177/4/4 184/4/4
f 180/4/4 181/4/4 185/4/4
f 185/4/4 181/4/4 186/4/4
f 187/3/4 188/3/4 192/3/4
f 188/4/4 189/4/4 193/4/4
f 192/3/4 188/3/4 193/3/4
f 193/4/4 189/4/4 194/4/4
f 190/4/4 191/4/4 195/4/4
f 195/4/4 191/4/4 196/4/4
f 200/3/5 198/3/5 197/3/5
f 201/3/5 198/3/5 200/3/5
f 203/3/5 200/3/5 199/3/5
f 203/3/5 202/3/5 201/3/5
f 203/3/5 201/3/5 200/3/5
f 204/3/5 202/3/5 203/3/5
f 205/3/5 202/3/5 204/3/5
f 206/3/5 202/3/5 205/3/5
f 207/3/5 205/3/5 204/3/5
f 208/3/5 205/3/5 207/3/5
f 212/4/5 210/4/5 209/4/5
f 213/4/5 210/4/5 212/4/5
f 215/4/5 212/4/5 211/4/5
f 216/4/5 215/4/5 211/4/5
f 217/4/5 216/4/5 211/4/5
f 218/4/5 216/4/5 217/4/5
f 221/4/5 214/4/5 213/4/5
f 222/4/5 214/4/5 221/4/5
f 223/4/5 220/4/5 219/4/5
f 223/4/5 221/4/5 220/4/5
f 223/4/5 219/4/5 218/4/5
f 224/4/5 221/4/5 223/4/5
f 225/4/6 226/4/6 228/4/6
f 228/4/6 226/4/6 229/4/6
f 229/4/6 226/4/6 230/4/6
f 230/4/6 226/4/6 231/4/6
f 231/4/6 232/4/6 233/4/6
f 233/4/6 232/4/6 234/4/6
f 227/4/6 228/4/6 235/4/6
f 235/4/6 228/4/6 236/4/6
f 234/4/6 232/4/6 237/4/6
f 237/4/6 232/4/6 238/4/6
f 236/4/6 237/4/6 239/4/6
f 239/4/6 237/4/6 240/4/6
f 241/4/6 242/4/6 244/4/6
f 244/4/6 242/4/6 245/4/6
f 243/4/6 244/4/6 247/4/6
f 245/4/6 246/4/6 247/4/6
f 244/4/6 245/4/6 247/4/6
f 247/4/6 246/4/6 248/4/6
f 243/4/6 247/4/6 249/4/6
f 248/4/6 246/4/6 250/4/6
f 243/4/6 249/4/6 251/4/6
f 249/4/6 250/4/6 251/4/6
f 251/4/6 250/4/6 252/4/6
f 250/4/6 246/4/6 253/4/6
f 252/4/6 250/4/6 253/4/6
f 253/4/6 246/4/6 254/4/6
f 252/4/6 253/4/6 255/4/6
f 255/4/6 253/4/6 256/4/6
f 257/2/6 258/2/6 259/2/6
f 259/2/6 258/2/6 260/2/6
