# MagicaVoxel @ Ephtracy

# group
o 

# material
mtllib Clock.mtl
usemtl palette

# normals
vn -1 0 0
vn 1 0 0
vn 0 0 1
vn 0 0 -1
vn 0 -1 0
vn 0 1 0

# texcoords
vt 0.0488281 0.5
vt 0.0527344 0.5
vt 0.0605469 0.5
vt 0.0800781 0.5

# verts
v -0.2 0 0.7
v -0.2 0 -0.7
v -0.2 0.1 0.8
v -0.2 0.1 0.7
v -0.2 0.1 -0.7
v -0.2 0.1 -0.8
v -0.2 0.5 0.8
v -0.2 0.5 0.7
v -0.2 0.5 -0.7
v -0.2 0.5 -0.8
v -0.2 0.6 0.7
v -0.2 0.6 -0.7
v 0.3 0 0.7
v 0.3 0 -0.7
v 0.3 0.1 0.8
v 0.3 0.1 0.7
v 0.3 0.1 0.6
v 0.3 0.1 0.5
v 0.3 0.1 0.4
v 0.3 0.1 0.2
v 0.3 0.1 0.1
v 0.3 0.1 0
v 0.3 0.1 -0.2
v 0.3 0.1 -0.3
v 0.3 0.1 -0.5
v 0.3 0.1 -0.6
v 0.3 0.1 -0.7
v 0.3 0.1 -0.8
v 0.3 0.2 0.3
v 0.3 0.2 0.2
v 0.3 0.2 0.1
v 0.3 0.2 0
v 0.3 0.3 0.7
v 0.3 0.3 0.6
v 0.3 0.3 0.4
v 0.3 0.3 0.3
v 0.3 0.3 0.2
v 0.3 0.3 -0.1
v 0.3 0.3 -0.2
v 0.3 0.4 0.7
v 0.3 0.4 0.6
v 0.3 0.4 0.4
v 0.3 0.4 0.3
v 0.3 0.4 0.1
v 0.3 0.4 0
v 0.3 0.4 -0.1
v 0.3 0.4 -0.2
v 0.3 0.4 -0.4
v 0.3 0.4 -0.5
v 0.3 0.5 0.8
v 0.3 0.5 0.7
v 0.3 0.5 0.6
v 0.3 0.5 0.5
v 0.3 0.5 0.4
v 0.3 0.5 0.2
v 0.3 0.5 0.1
v 0.3 0.5 0
v 0.3 0.5 -0.2
v 0.3 0.5 -0.3
v 0.3 0.5 -0.4
v 0.3 0.5 -0.6
v 0.3 0.5 -0.7
v 0.3 0.5 -0.8
v 0.3 0.6 0.7
v 0.3 0.6 -0.7
v -0.2 0.1 0.8
v -0.2 0.5 0.8
v 0.3 0.1 0.8
v 0.3 0.5 0.8
v -0.2 0 0.7
v -0.2 0.1 0.7
v -0.2 0.5 0.7
v -0.2 0.6 0.7
v 0.3 0 0.7
v 0.3 0.1 0.7
v 0.3 0.5 0.7
v 0.3 0.6 0.7
v -0.2 0 -0.7
v -0.2 0.1 -0.7
v -0.2 0.5 -0.7
v -0.2 0.6 -0.7
v 0.3 0 -0.7
v 0.3 0.1 -0.7
v 0.3 0.5 -0.7
v 0.3 0.6 -0.7
v -0.2 0.1 -0.8
v -0.2 0.5 -0.8
v 0.3 0.1 -0.8
v 0.3 0.5 -0.8
v -0.2 0 0.7
v 0.3 0 0.7
v -0.2 0 -0.7
v 0.3 0 -0.7
v -0.2 0.1 0.8
v 0.3 0.1 0.8
v -0.2 0.1 0.7
v 0.3 0.1 0.7
v -0.2 0.1 -0.7
v 0.3 0.1 -0.7
v -0.2 0.1 -0.8
v 0.3 0.1 -0.8
v -0.2 0.5 0.8
v 0.3 0.5 0.8
v -0.2 0.5 0.7
v 0.3 0.5 0.7
v -0.2 0.5 -0.7
v 0.3 0.5 -0.7
v -0.2 0.5 -0.8
v 0.3 0.5 -0.8
v -0.2 0.6 0.7
v 0.3 0.6 0.7
v 0.1 0.6 0.6
v 0.2 0.6 0.6
v 0.1 0.6 0.5
v 0.2 0.6 0.5
v 0.1 0.6 0.4
v 0.2 0.6 0.4
v 0.1 0.6 0.3
v 0.2 0.6 0.3
v -0.1 0.6 0.2
v 0.2 0.6 0.2
v -0.1 0.6 -0.2
v 0.2 0.6 -0.2
v 0.1 0.6 -0.3
v 0.2 0.6 -0.3
v 0.1 0.6 -0.4
v 0.2 0.6 -0.4
v 0.1 0.6 -0.5
v 0.2 0.6 -0.5
v 0.1 0.6 -0.6
v 0.2 0.6 -0.6
v -0.2 0.6 -0.7
v 0.3 0.6 -0.7

# faces
f 4/2/1 2/2/1 1/2/1
f 5/2/1 2/2/1 4/2/1
f 7/2/1 4/2/1 3/2/1
f 7/2/1 6/2/1 5/2/1
f 7/2/1 5/2/1 4/2/1
f 8/2/1 6/2/1 7/2/1
f 9/2/1 6/2/1 8/2/1
f 10/2/1 6/2/1 9/2/1
f 11/2/1 9/2/1 8/2/1
f 12/2/1 9/2/1 11/2/1
f 13/2/2 14/2/2 16/2/2
f 16/2/2 14/2/2 17/2/2
f 17/2/2 14/2/2 18/2/2
f 18/2/2 14/2/2 19/2/2
f 19/2/2 14/2/2 20/2/2
f 20/2/2 14/2/2 21/2/2
f 21/2/2 14/2/2 22/2/2
f 22/2/2 14/2/2 23/2/2
f 23/2/2 14/2/2 24/2/2
f 24/2/2 14/2/2 25/2/2
f 25/2/2 14/2/2 26/2/2
f 26/2/2 14/2/2 27/2/2
f 19/3/2 20/3/2 29/3/2
f 20/4/2 21/4/2 30/4/2
f 29/3/2 20/3/2 30/3/2
f 21/3/2 22/3/2 31/3/2
f 30/4/2 21/4/2 31/4/2
f 22/4/2 23/4/2 32/4/2
f 31/3/2 22/3/2 32/3/2
f 15/2/2 16/2/2 33/2/2
f 16/4/2 17/4/2 33/4/2
f 17/3/2 18/3/2 34/3/2
f 33/4/2 17/4/2 34/4/2
f 18/4/2 19/4/2 35/4/2
f 19/3/2 29/3/2 35/3/2
f 31/4/2 32/4/2 36/4/2
f 35/3/2 29/3/2 36/3/2
f 29/4/2 30/4/2 36/4/2
f 30/4/2 31/4/2 36/4/2
f 36/4/2 32/4/2 37/4/2
f 32/4/2 23/4/2 38/4/2
f 37/4/2 32/4/2 38/4/2
f 23/3/2 24/3/2 39/3/2
f 38/4/2 23/4/2 39/4/2
f 15/2/2 33/2/2 40/2/2
f 33/3/2 34/3/2 40/3/2
f 34/3/2 18/3/2 41/3/2
f 40/3/2 34/3/2 41/3/2
f 18/4/2 35/4/2 42/4/2
f 35/4/2 36/4/2 42/4/2
f 36/3/2 37/3/2 43/3/2
f 42/4/2 36/4/2 43/4/2
f 37/4/2 38/4/2 44/4/2
f 44/4/2 38/4/2 45/4/2
f 38/3/2 39/3/2 46/3/2
f 45/4/2 38/4/2 46/4/2
f 39/3/2 24/3/2 47/3/2
f 46/3/2 39/3/2 47/3/2
f 24/4/2 25/4/2 48/4/2
f 25/3/2 26/3/2 49/3/2
f 48/4/2 25/4/2 49/4/2
f 15/2/2 40/2/2 50/2/2
f 40/4/2 41/4/2 51/4/2
f 50/2/2 40/2/2 51/2/2
f 41/3/2 18/3/2 52/3/2
f 51/4/2 41/4/2 52/4/2
f 18/4/2 42/4/2 53/4/2
f 52/3/2 18/3/2 53/3/2
f 42/3/2 43/3/2 54/3/2
f 53/4/2 42/4/2 54/4/2
f 43/3/2 37/3/2 55/3/2
f 54/3/2 43/3/2 55/3/2
f 37/4/2 44/4/2 55/4/2
f 44/3/2 45/3/2 56/3/2
f 55/4/2 44/4/2 56/4/2
f 45/4/2 46/4/2 57/4/2
f 56/3/2 45/3/2 57/3/2
f 46/4/2 47/4/2 57/4/2
f 47/3/2 24/3/2 58/3/2
f 57/4/2 47/4/2 58/4/2
f 24/4/2 48/4/2 59/4/2
f 58/3/2 24/3/2 59/3/2
f 48/3/2 49/3/2 60/3/2
f 59/4/2 48/4/2 60/4/2
f 49/3/2 26/3/2 61/3/2
f 60/3/2 49/3/2 61/3/2
f 26/4/2 27/4/2 61/4/2
f 27/2/2 28/2/2 62/2/2
f 61/4/2 27/4/2 62/4/2
f 62/2/2 28/2/2 63/2/2
f 51/2/2 52/2/2 64/2/2
f 61/2/2 62/2/2 64/2/2
f 52/2/2 53/2/2 64/2/2
f 55/2/2 56/2/2 64/2/2
f 56/2/2 57/2/2 64/2/2
f 53/2/2 54/2/2 64/2/2
f 57/2/2 58/2/2 64/2/2
f 58/2/2 59/2/2 64/2/2
f 54/2/2 55/2/2 64/2/2
f 60/2/2 61/2/2 64/2/2
f 59/2/2 60/2/2 64/2/2
f 64/2/2 62/2/2 65/2/2
f 68/2/3 67/2/3 66/2/3
f 69/2/3 67/2/3 68/2/3
f 74/2/3 71/2/3 70/2/3
f 75/2/3 71/2/3 74/2/3
f 76/2/3 73/2/3 72/2/3
f 77/2/3 73/2/3 76/2/3
f 78/2/4 79/2/4 82/2/4
f 82/2/4 79/2/4 83/2/4
f 80/2/4 81/2/4 84/2/4
f 84/2/4 81/2/4 85/2/4
f 86/2/4 87/2/4 88/2/4
f 88/2/4 87/2/4 89/2/4
f 92/2/5 91/2/5 90/2/5
f 93/2/5 91/2/5 92/2/5
f 96/2/5 95/2/5 94/2/5
f 97/2/5 95/2/5 96/2/5
f 100/2/5 99/2/5 98/2/5
f 101/2/5 99/2/5 100/2/5
f 102/2/6 103/2/6 104/2/6
f 104/2/6 103/2/6 105/2/6
f 106/2/6 107/2/6 108/2/6
f 108/2/6 107/2/6 109/2/6
f 110/2/6 111/2/6 112/2/6
f 112/2/6 111/2/6 113/2/6
f 110/2/6 112/2/6 114/2/6
f 112/1/6 113/1/6 114/1/6
f 113/2/6 111/2/6 115/2/6
f 114/1/6 113/1/6 115/1/6
f 110/2/6 114/2/6 116/2/6
f 114/2/6 115/2/6 116/2/6
f 115/2/6 111/2/6 117/2/6
f 116/2/6 115/2/6 117/2/6
f 110/2/6 116/2/6 118/2/6
f 116/1/6 117/1/6 118/1/6
f 117/2/6 111/2/6 119/2/6
f 118/1/6 117/1/6 119/1/6
f 110/2/6 118/2/6 120/2/6
f 118/2/6 119/2/6 120/2/6
f 119/2/6 111/2/6 121/2/6
f 120/2/6 119/2/6 121/2/6
f 110/2/6 120/2/6 122/2/6
f 120/1/6 121/1/6 122/1/6
f 121/2/6 111/2/6 123/2/6
f 122/1/6 121/1/6 123/1/6
f 122/2/6 123/2/6 124/2/6
f 123/2/6 111/2/6 125/2/6
f 124/2/6 123/2/6 125/2/6
f 122/2/6 124/2/6 126/2/6
f 124/1/6 125/1/6 126/1/6
f 125/2/6 111/2/6 127/2/6
f 126/1/6 125/1/6 127/1/6
f 122/2/6 126/2/6 128/2/6
f 126/2/6 127/2/6 128/2/6
f 127/2/6 111/2/6 129/2/6
f 128/2/6 127/2/6 129/2/6
f 122/2/6 128/2/6 130/2/6
f 128/1/6 129/1/6 130/1/6
f 129/2/6 111/2/6 131/2/6
f 130/1/6 129/1/6 131/1/6
f 110/2/6 122/2/6 132/2/6
f 122/2/6 130/2/6 132/2/6
f 130/2/6 131/2/6 132/2/6
f 131/2/6 111/2/6 133/2/6
f 132/2/6 131/2/6 133/2/6
