# MagicaVoxel @ Ephtracy

# group
o 

# material
mtllib Rubik.mtl
usemtl palette

# normals
vn -1 0 0
vn 1 0 0
vn 0 0 1
vn 0 0 -1
vn 0 -1 0
vn 0 1 0

# texcoords
vt 0.0175781 0.5
vt 0.0253906 0.5
vt 0.0527344 0.5
vt 0.0605469 0.5
vt 0.107422 0.5
vt 0.111328 0.5

# verts
v -0.3 0 0.3
v -0.3 0 0.1
v -0.3 0 -0.1
v -0.3 0 -0.3
v -0.3 0.2 0.3
v -0.3 0.2 0.1
v -0.3 0.2 -0.1
v -0.3 0.2 -0.3
v -0.3 0.4 0.3
v -0.3 0.4 0.1
v -0.3 0.4 -0.1
v -0.3 0.4 -0.3
v -0.3 0.6 0.3
v -0.3 0.6 0.1
v -0.3 0.6 -0.1
v -0.3 0.6 -0.3
v 0.3 0 0.3
v 0.3 0 0.1
v 0.3 0 -0.1
v 0.3 0 -0.3
v 0.3 0.2 0.3
v 0.3 0.2 0.1
v 0.3 0.2 -0.1
v 0.3 0.2 -0.3
v 0.3 0.4 0.1
v 0.3 0.4 -0.1
v 0.3 0.6 0.3
v 0.3 0.6 0.1
v 0.3 0.6 -0.1
v 0.3 0.6 -0.3
v -0.3 0 0.3
v -0.3 0.2 0.3
v -0.3 0.4 0.3
v -0.3 0.6 0.3
v -0.2 0 0.3
v -0.2 0.2 0.3
v -0.2 0.4 0.3
v -0.1 0 0.3
v -0.1 0.2 0.3
v -0.1 0.4 0.3
v -0.1 0.6 0.3
v 0.1 0 0.3
v 0.1 0.2 0.3
v 0.1 0.4 0.3
v 0.1 0.6 0.3
v 0.2 0 0.3
v 0.2 0.2 0.3
v 0.2 0.4 0.3
v 0.2 0.6 0.3
v 0.3 0 0.3
v 0.3 0.2 0.3
v 0.3 0.6 0.3
v -0.3 0 -0.3
v -0.3 0.2 -0.3
v -0.3 0.4 -0.3
v -0.3 0.6 -0.3
v -0.2 0 -0.3
v -0.2 0.2 -0.3
v -0.2 0.4 -0.3
v -0.2 0.6 -0.3
v -0.1 0 -0.3
v -0.1 0.2 -0.3
v -0.1 0.4 -0.3
v -0.1 0.6 -0.3
v 0.1 0 -0.3
v 0.1 0.2 -0.3
v 0.1 0.4 -0.3
v 0.1 0.6 -0.3
v 0.2 0 -0.3
v 0.2 0.2 -0.3
v 0.2 0.4 -0.3
v 0.2 0.6 -0.3
v 0.3 0 -0.3
v 0.3 0.2 -0.3
v 0.3 0.6 -0.3
v -0.3 0 0.3
v -0.2 0 0.3
v -0.1 0 0.3
v 0.1 0 0.3
v 0.2 0 0.3
v 0.3 0 0.3
v -0.2 0 0.2
v -0.1 0 0.2
v 0.1 0 0.2
v 0.2 0 0.2
v -0.3 0 0.1
v -0.2 0 0.1
v -0.1 0 0.1
v 0.1 0 0.1
v 0.2 0 0.1
v 0.3 0 0.1
v -0.3 0 -0.1
v -0.2 0 -0.1
v -0.1 0 -0.1
v 0.1 0 -0.1
v 0.2 0 -0.1
v 0.3 0 -0.1
v -0.2 0 -0.2
v -0.1 0 -0.2
v 0.1 0 -0.2
v 0.2 0 -0.2
v -0.3 0 -0.3
v -0.2 0 -0.3
v -0.1 0 -0.3
v 0.1 0 -0.3
v 0.2 0 -0.3
v 0.3 0 -0.3
v -0.3 0.6 0.3
v -0.1 0.6 0.3
v 0.1 0.6 0.3
v 0.2 0.6 0.3
v 0.3 0.6 0.3
v -0.2 0.6 0.2
v -0.1 0.6 0.2
v 0.1 0.6 0.2
v 0.2 0.6 0.2
v -0.3 0.6 0.1
v -0.2 0.6 0.1
v -0.1 0.6 0.1
v 0.1 0.6 0.1
v 0.2 0.6 0.1
v 0.3 0.6 0.1
v -0.3 0.6 -0.1
v -0.2 0.6 -0.1
v -0.1 0.6 -0.1
v 0.1 0.6 -0.1
v 0.2 0.6 -0.1
v 0.3 0.6 -0.1
v -0.2 0.6 -0.2
v -0.1 0.6 -0.2
v 0.1 0.6 -0.2
v 0.2 0.6 -0.2
v -0.3 0.6 -0.3
v -0.2 0.6 -0.3
v -0.1 0.6 -0.3
v 0.1 0.6 -0.3
v 0.2 0.6 -0.3
v 0.3 0.6 -0.3

# faces
f 5/6/1 2/6/1 1/6/1
f 6/3/1 3/3/1 2/3/1
f 6/6/1 2/6/1 5/6/1
f 7/2/1 4/2/1 3/2/1
f 7/3/1 3/3/1 6/3/1
f 8/2/1 4/2/1 7/2/1
f 9/1/1 6/1/1 5/1/1
f 10/2/1 7/2/1 6/2/1
f 10/1/1 6/1/1 9/1/1
f 11/5/1 8/5/1 7/5/1
f 11/2/1 7/2/1 10/2/1
f 12/5/1 8/5/1 11/5/1
f 13/4/1 10/4/1 9/4/1
f 14/5/1 11/5/1 10/5/1
f 14/4/1 10/4/1 13/4/1
f 15/4/1 12/4/1 11/4/1
f 15/5/1 11/5/1 14/5/1
f 16/4/1 12/4/1 15/4/1
f 17/2/2 18/2/2 21/2/2
f 18/1/2 19/1/2 22/1/2
f 21/2/2 18/2/2 22/2/2
f 19/3/2 20/3/2 23/3/2
f 22/1/2 19/1/2 23/1/2
f 23/3/2 20/3/2 24/3/2
f 21/5/2 22/5/2 25/5/2
f 22/5/2 23/5/2 25/5/2
f 23/1/2 24/1/2 26/1/2
f 25/5/2 23/5/2 26/5/2
f 21/5/2 25/5/2 27/5/2
f 25/2/2 26/2/2 28/2/2
f 27/5/2 25/5/2 28/5/2
f 26/1/2 24/1/2 29/1/2
f 28/2/2 26/2/2 29/2/2
f 29/1/2 24/1/2 30/1/2
f 35/6/3 32/6/3 31/6/3
f 36/1/3 33/1/3 32/1/3
f 36/6/3 32/6/3 35/6/3
f 37/4/3 34/4/3 33/4/3
f 37/1/3 33/1/3 36/1/3
f 38/2/3 36/2/3 35/2/3
f 39/3/3 37/3/3 36/3/3
f 39/2/3 36/2/3 38/2/3
f 40/4/3 34/4/3 37/4/3
f 40/3/3 37/3/3 39/3/3
f 41/4/3 34/4/3 40/4/3
f 42/4/3 39/4/3 38/4/3
f 43/3/3 40/3/3 39/3/3
f 43/4/3 39/4/3 42/4/3
f 44/5/3 41/5/3 40/5/3
f 44/3/3 40/3/3 43/3/3
f 45/5/3 41/5/3 44/5/3
f 46/3/3 43/3/3 42/3/3
f 47/6/3 44/6/3 43/6/3
f 47/3/3 43/3/3 46/3/3
f 48/1/3 45/1/3 44/1/3
f 48/6/3 44/6/3 47/6/3
f 49/1/3 45/1/3 48/1/3
f 50/2/3 47/2/3 46/2/3
f 51/5/3 48/5/3 47/5/3
f 51/2/3 47/2/3 50/2/3
f 51/5/3 49/5/3 48/5/3
f 52/5/3 49/5/3 51/5/3
f 53/2/4 54/2/4 57/2/4
f 54/5/4 55/5/4 58/5/4
f 57/2/4 54/2/4 58/2/4
f 55/4/4 56/4/4 59/4/4
f 58/5/4 55/5/4 59/5/4
f 59/4/4 56/4/4 60/4/4
f 57/5/4 58/5/4 61/5/4
f 58/6/4 59/6/4 62/6/4
f 61/5/4 58/5/4 62/5/4
f 59/5/4 60/5/4 63/5/4
f 62/6/4 59/6/4 63/6/4
f 63/5/4 60/5/4 64/5/4
f 61/6/4 62/6/4 65/6/4
f 62/1/4 63/1/4 66/1/4
f 65/6/4 62/6/4 66/6/4
f 63/2/4 64/2/4 67/2/4
f 66/1/4 63/1/4 67/1/4
f 67/2/4 64/2/4 68/2/4
f 65/4/4 66/4/4 69/4/4
f 66/4/4 67/4/4 69/4/4
f 69/4/4 67/4/4 70/4/4
f 67/6/4 68/6/4 71/6/4
f 70/4/4 67/4/4 71/4/4
f 71/6/4 68/6/4 72/6/4
f 69/3/4 70/3/4 73/3/4
f 70/1/4 71/1/4 74/1/4
f 73/3/4 70/3/4 74/3/4
f 71/1/4 72/1/4 74/1/4
f 74/1/4 72/1/4 75/1/4
f 82/6/5 77/6/5 76/6/5
f 82/2/5 78/2/5 77/2/5
f 83/4/5 79/4/5 78/4/5
f 83/2/5 78/2/5 82/2/5
f 84/3/5 80/3/5 79/3/5
f 84/4/5 79/4/5 83/4/5
f 85/2/5 81/2/5 80/2/5
f 85/3/5 80/3/5 84/3/5
f 86/6/5 83/6/5 82/6/5
f 86/6/5 82/6/5 76/6/5
f 87/6/5 83/6/5 86/6/5
f 88/2/5 84/2/5 83/2/5
f 88/6/5 83/6/5 87/6/5
f 89/5/5 85/5/5 84/5/5
f 89/2/5 84/2/5 88/2/5
f 90/2/5 81/2/5 85/2/5
f 90/5/5 85/5/5 89/5/5
f 91/2/5 81/2/5 90/2/5
f 92/3/5 87/3/5 86/3/5
f 93/4/5 88/4/5 87/4/5
f 93/3/5 87/3/5 92/3/5
f 94/1/5 89/1/5 88/1/5
f 94/4/5 88/4/5 93/4/5
f 95/6/5 90/6/5 89/6/5
f 95/1/5 89/1/5 94/1/5
f 96/1/5 91/1/5 90/1/5
f 96/6/5 90/6/5 95/6/5
f 97/1/5 91/1/5 96/1/5
f 98/2/5 93/2/5 92/2/5
f 98/4/5 94/4/5 93/4/5
f 99/6/5 95/6/5 94/6/5
f 99/4/5 94/4/5 98/4/5
f 100/5/5 96/5/5 95/5/5
f 100/6/5 95/6/5 99/6/5
f 101/3/5 97/3/5 96/3/5
f 101/5/5 96/5/5 100/5/5
f 102/2/5 98/2/5 92/2/5
f 103/5/5 99/5/5 98/5/5
f 103/2/5 98/2/5 102/2/5
f 104/6/5 100/6/5 99/6/5
f 104/5/5 99/5/5 103/5/5
f 105/4/5 101/4/5 100/4/5
f 105/6/5 100/6/5 104/6/5
f 106/3/5 97/3/5 101/3/5
f 106/4/5 101/4/5 105/4/5
f 107/3/5 97/3/5 106/3/5
f 108/4/6 109/4/6 113/4/6
f 109/5/6 110/5/6 114/5/6
f 113/4/6 109/4/6 114/4/6
f 110/1/6 111/1/6 115/1/6
f 114/5/6 110/5/6 115/5/6
f 111/5/6 112/5/6 116/5/6
f 115/1/6 111/1/6 116/1/6
f 108/4/6 113/4/6 117/4/6
f 114/3/6 115/3/6 118/3/6
f 117/4/6 113/4/6 118/4/6
f 113/3/6 114/3/6 118/3/6
f 118/3/6 115/3/6 119/3/6
f 115/6/6 116/6/6 120/6/6
f 119/3/6 115/3/6 120/3/6
f 116/5/6 112/5/6 121/5/6
f 120/6/6 116/6/6 121/6/6
f 121/5/6 112/5/6 122/5/6
f 117/5/6 118/5/6 123/5/6
f 118/4/6 119/4/6 124/4/6
f 123/5/6 118/5/6 124/5/6
f 119/6/6 120/6/6 125/6/6
f 124/4/6 119/4/6 125/4/6
f 120/4/6 121/4/6 126/4/6
f 125/6/6 120/6/6 126/6/6
f 121/2/6 122/2/6 127/2/6
f 126/4/6 121/4/6 127/4/6
f 127/2/6 122/2/6 128/2/6
f 123/4/6 124/4/6 129/4/6
f 124/1/6 125/1/6 129/1/6
f 125/1/6 126/1/6 129/1/6
f 129/1/6 126/1/6 130/1/6
f 126/2/6 127/2/6 131/2/6
f 130/1/6 126/1/6 131/1/6
f 127/1/6 128/1/6 132/1/6
f 131/2/6 127/2/6 132/2/6
f 123/4/6 129/4/6 133/4/6
f 129/5/6 130/5/6 134/5/6
f 133/4/6 129/4/6 134/4/6
f 130/2/6 131/2/6 135/2/6
f 134/5/6 130/5/6 135/5/6
f 131/6/6 132/6/6 136/6/6
f 135/2/6 131/2/6 136/2/6
f 132/1/6 128/1/6 137/1/6
f 136/6/6 132/6/6 137/6/6
f 137/1/6 128/1/6 138/1/6
