# MagicaVoxel @ Ephtracy

# group
o 

# material
mtllib Steam.mtl
usemtl palette

# normals
vn -1 0 0
vn 1 0 0
vn 0 0 1
vn 0 0 -1
vn 0 -1 0
vn 0 1 0

# texcoords
vt 0.0722656 0.5
vt 0.0761719 0.5
vt 0.0800781 0.5

# verts
v -0.7 0.1 0
v -0.7 0.1 -0.2
v -0.7 0.2 0.1
v -0.7 0.2 0
v -0.7 0.4 -0.1
v -0.7 0.4 -0.2
v -0.7 0.5 0
v -0.7 0.5 -0.1
v -0.7 0.6 0.1
v -0.7 0.6 0
v -0.7 0.6 -0.2
v -0.6 0 0
v -0.6 0 -0.2
v -0.6 0.1 0.1
v -0.6 0.1 0
v -0.6 0.1 -0.2
v -0.6 0.2 0.1
v -0.6 0.2 0
v -0.5 0 0.1
v -0.5 0 0
v -0.5 0.1 0.1
v -0.5 0.1 0
v -0.5 0.4 0.2
v -0.5 0.4 0.1
v -0.5 0.5 0.2
v -0.5 0.5 0.1
v 0.4 0 -0.1
v 0.4 0 -0.2
v 0.4 0.1 -0.1
v 0.4 0.1 -0.2
v 0.4 0.3 -0.1
v 0.4 0.3 -0.2
v 0.4 0.4 0.2
v 0.4 0.4 0.1
v 0.4 0.5 0.2
v 0.4 0.5 0.1
v 0.5 0.3 -0.1
v 0.5 0.3 -0.2
v 0.5 0.4 -0.1
v 0.5 0.4 -0.2
v 0.5 0.6 -0.1
v 0.5 0.6 -0.2
v -0.5 0.3 -0.1
v -0.5 0.3 -0.2
v -0.5 0.4 -0.1
v -0.5 0.4 -0.2
v -0.5 0.6 -0.1
v -0.5 0.6 -0.2
v -0.4 0 -0.1
v -0.4 0 -0.2
v -0.4 0.1 -0.1
v -0.4 0.1 -0.2
v -0.4 0.3 -0.1
v -0.4 0.3 -0.2
v -0.4 0.4 0.2
v -0.4 0.4 0.1
v -0.4 0.5 0.2
v -0.4 0.5 0.1
v 0.5 0 0.1
v 0.5 0 0
v 0.5 0.1 0.1
v 0.5 0.1 0
v 0.5 0.4 0.2
v 0.5 0.4 0.1
v 0.5 0.5 0.2
v 0.5 0.5 0.1
v 0.6 0 0
v 0.6 0 -0.2
v 0.6 0.1 0.1
v 0.6 0.1 0
v 0.6 0.1 -0.2
v 0.6 0.2 0.1
v 0.6 0.2 0
v 0.7 0.1 0
v 0.7 0.1 -0.2
v 0.7 0.2 0.1
v 0.7 0.2 0
v 0.7 0.4 -0.1
v 0.7 0.4 -0.2
v 0.7 0.5 0
v 0.7 0.5 -0.1
v 0.7 0.6 0.1
v 0.7 0.6 0
v 0.7 0.6 -0.2
v -0.5 0.4 0.2
v -0.5 0.5 0.2
v -0.4 0.4 0.2
v -0.4 0.5 0.2
v 0.4 0.4 0.2
v 0.4 0.5 0.2
v 0.5 0.4 0.2
v 0.5 0.5 0.2
v -0.7 0.2 0.1
v -0.7 0.6 0.1
v -0.6 0.1 0.1
v -0.6 0.2 0.1
v -0.6 0.4 0.1
v -0.5 0 0.1
v -0.5 0.1 0.1
v -0.5 0.4 0.1
v -0.5 0.5 0.1
v -0.4 0 0.1
v -0.4 0.2 0.1
v -0.4 0.4 0.1
v -0.4 0.5 0.1
v -0.4 0.6 0.1
v 0.4 0 0.1
v 0.4 0.2 0.1
v 0.4 0.4 0.1
v 0.4 0.5 0.1
v 0.4 0.6 0.1
v 0.5 0 0.1
v 0.5 0.1 0.1
v 0.5 0.4 0.1
v 0.5 0.5 0.1
v 0.6 0.1 0.1
v 0.6 0.2 0.1
v 0.6 0.4 0.1
v 0.7 0.2 0.1
v 0.7 0.6 0.1
v -0.7 0.1 0
v -0.7 0.2 0
v -0.6 0 0
v -0.6 0.1 0
v -0.6 0.2 0
v -0.5 0 0
v -0.5 0.1 0
v 0.5 0 0
v 0.5 0.1 0
v 0.6 0 0
v 0.6 0.1 0
v 0.6 0.2 0
v 0.7 0.1 0
v 0.7 0.2 0
v -0.5 0.3 -0.1
v -0.5 0.4 -0.1
v -0.5 0.6 -0.1
v -0.4 0 -0.1
v -0.4 0.1 -0.1
v -0.4 0.3 -0.1
v -0.3 0.1 -0.1
v -0.3 0.4 -0.1
v 0.3 0.1 -0.1
v 0.3 0.4 -0.1
v 0.4 0 -0.1
v 0.4 0.1 -0.1
v 0.4 0.3 -0.1
v 0.5 0.3 -0.1
v 0.5 0.4 -0.1
v 0.5 0.6 -0.1
v -0.7 0.1 -0.2
v -0.7 0.4 -0.2
v -0.7 0.6 -0.2
v -0.6 0 -0.2
v -0.6 0.1 -0.2
v -0.5 0.1 -0.2
v -0.5 0.3 -0.2
v -0.5 0.4 -0.2
v -0.5 0.6 -0.2
v -0.4 0 -0.2
v -0.4 0.1 -0.2
v -0.4 0.3 -0.2
v 0.4 0 -0.2
v 0.4 0.1 -0.2
v 0.4 0.3 -0.2
v 0.5 0.1 -0.2
v 0.5 0.3 -0.2
v 0.5 0.4 -0.2
v 0.5 0.6 -0.2
v 0.6 0 -0.2
v 0.6 0.1 -0.2
v 0.7 0.1 -0.2
v 0.7 0.4 -0.2
v 0.7 0.6 -0.2
v -0.5 0 0.1
v -0.4 0 0.1
v 0.4 0 0.1
v 0.5 0 0.1
v -0.6 0 0
v -0.5 0 0
v -0.4 0 0
v 0.4 0 0
v 0.5 0 0
v 0.6 0 0
v -0.4 0 -0.1
v 0.4 0 -0.1
v -0.6 0 -0.2
v -0.4 0 -0.2
v 0.4 0 -0.2
v 0.6 0 -0.2
v -0.6 0.1 0.1
v -0.5 0.1 0.1
v 0.5 0.1 0.1
v 0.6 0.1 0.1
v -0.7 0.1 0
v -0.6 0.1 0
v -0.5 0.1 0
v 0.5 0.1 0
v 0.6 0.1 0
v 0.7 0.1 0
v -0.7 0.1 -0.2
v -0.6 0.1 -0.2
v 0.6 0.1 -0.2
v 0.7 0.1 -0.2
v -0.7 0.2 0.1
v -0.6 0.2 0.1
v 0.6 0.2 0.1
v 0.7 0.2 0.1
v -0.7 0.2 0
v -0.6 0.2 0
v 0.6 0.2 0
v 0.7 0.2 0
v -0.5 0.4 0.2
v -0.4 0.4 0.2
v 0.4 0.4 0.2
v 0.5 0.4 0.2
v -0.5 0.4 0.1
v -0.4 0.4 0.1
v 0.4 0.4 0.1
v 0.5 0.4 0.1
v -0.5 0.3 -0.1
v -0.4 0.3 -0.1
v 0.4 0.3 -0.1
v 0.5 0.3 -0.1
v -0.5 0.3 -0.2
v -0.4 0.3 -0.2
v 0.4 0.3 -0.2
v 0.5 0.3 -0.2
v -0.5 0.5 0.2
v -0.4 0.5 0.2
v 0.4 0.5 0.2
v 0.5 0.5 0.2
v -0.5 0.5 0.1
v -0.4 0.5 0.1
v 0.4 0.5 0.1
v 0.5 0.5 0.1
v -0.7 0.6 0.1
v -0.4 0.6 0.1
v 0.4 0.6 0.1
v 0.7 0.6 0.1
v -0.7 0.6 0
v -0.5 0.6 0
v -0.4 0.6 0
v 0.4 0.6 0
v 0.5 0.6 0
v 0.7 0.6 0
v -0.5 0.6 -0.1
v 0.5 0.6 -0.1
v -0.7 0.6 -0.2
v -0.5 0.6 -0.2
v 0.5 0.6 -0.2
v 0.7 0.6 -0.2

# faces
f 4/2/1 2/2/1 1/2/1
f 5/2/1 2/2/1 4/2/1
f 5/2/1 4/2/1 3/2/1
f 6/2/1 2/2/1 5/2/1
f 7/2/1 5/2/1 3/2/1
f 8/3/1 6/3/1 5/3/1
f 8/2/1 5/2/1 7/2/1
f 9/2/1 7/2/1 3/2/1
f 10/3/1 8/3/1 7/3/1
f 10/2/1 7/2/1 9/2/1
f 11/3/1 6/3/1 8/3/1
f 11/3/1 8/3/1 10/3/1
f 15/2/1 13/2/1 12/2/1
f 16/2/1 13/2/1 15/2/1
f 17/2/1 15/2/1 14/2/1
f 18/2/1 15/2/1 17/2/1
f 21/2/1 20/2/1 19/2/1
f 22/2/1 20/2/1 21/2/1
f 25/3/1 24/3/1 23/3/1
f 26/3/1 24/3/1 25/3/1
f 29/2/1 28/2/1 27/2/1
f 30/2/1 28/2/1 29/2/1
f 31/3/1 30/3/1 29/3/1
f 32/3/1 30/3/1 31/3/1
f 35/3/1 34/3/1 33/3/1
f 36/3/1 34/3/1 35/3/1
f 39/2/1 38/2/1 37/2/1
f 40/2/1 38/2/1 39/2/1
f 41/3/1 40/3/1 39/3/1
f 42/3/1 40/3/1 41/3/1
f 43/2/2 44/2/2 45/2/2
f 45/2/2 44/2/2 46/2/2
f 45/3/2 46/3/2 47/3/2
f 47/3/2 46/3/2 48/3/2
f 49/2/2 50/2/2 51/2/2
f 51/2/2 50/2/2 52/2/2
f 51/3/2 52/3/2 53/3/2
f 53/3/2 52/3/2 54/3/2
f 55/3/2 56/3/2 57/3/2
f 57/3/2 56/3/2 58/3/2
f 59/2/2 60/2/2 61/2/2
f 61/2/2 60/2/2 62/2/2
f 63/3/2 64/3/2 65/3/2
f 65/3/2 64/3/2 66/3/2
f 67/2/2 68/2/2 70/2/2
f 70/2/2 68/2/2 71/2/2
f 69/2/2 70/2/2 72/2/2
f 72/2/2 70/2/2 73/2/2
f 74/2/2 75/2/2 77/2/2
f 77/2/2 75/2/2 78/2/2
f 76/2/2 77/2/2 78/2/2
f 78/2/2 75/2/2 79/2/2
f 76/2/2 78/2/2 80/2/2
f 78/3/2 79/3/2 81/3/2
f 80/2/2 78/2/2 81/2/2
f 76/2/2 80/2/2 82/2/2
f 80/3/2 81/3/2 83/3/2
f 82/2/2 80/2/2 83/2/2
f 81/3/2 79/3/2 84/3/2
f 83/3/2 81/3/2 84/3/2
f 87/3/3 86/3/3 85/3/3
f 88/3/3 86/3/3 87/3/3
f 91/3/3 90/3/3 89/3/3
f 92/3/3 90/3/3 91/3/3
f 96/2/3 94/2/3 93/2/3
f 97/2/3 94/2/3 96/2/3
f 99/2/3 96/2/3 95/2/3
f 100/2/3 94/2/3 97/2/3
f 100/1/3 97/1/3 96/1/3
f 101/2/3 94/2/3 100/2/3
f 102/2/3 99/2/3 98/2/3
f 103/2/3 96/2/3 99/2/3
f 103/2/3 99/2/3 102/2/3
f 103/1/3 100/1/3 96/1/3
f 104/1/3 100/1/3 103/1/3
f 105/2/3 94/2/3 101/2/3
f 106/2/3 94/2/3 105/2/3
f 107/3/3 104/3/3 103/3/3
f 107/3/3 103/3/3 102/3/3
f 107/3/3 106/3/3 105/3/3
f 107/3/3 105/3/3 104/3/3
f 108/3/3 106/3/3 107/3/3
f 109/3/3 106/3/3 108/3/3
f 110/3/3 106/3/3 109/3/3
f 111/3/3 106/3/3 110/3/3
f 112/2/3 108/2/3 107/2/3
f 113/2/3 108/2/3 112/2/3
f 114/1/3 109/1/3 108/1/3
f 115/2/3 111/2/3 110/2/3
f 116/2/3 108/2/3 113/2/3
f 117/1/3 114/1/3 108/1/3
f 117/2/3 108/2/3 116/2/3
f 118/2/3 115/2/3 114/2/3
f 118/1/3 114/1/3 117/1/3
f 119/2/3 118/2/3 117/2/3
f 120/2/3 115/2/3 118/2/3
f 120/2/3 118/2/3 119/2/3
f 120/2/3 111/2/3 115/2/3
f 124/2/3 122/2/3 121/2/3
f 125/2/3 122/2/3 124/2/3
f 126/2/3 124/2/3 123/2/3
f 127/2/3 124/2/3 126/2/3
f 130/2/3 129/2/3 128/2/3
f 131/2/3 129/2/3 130/2/3
f 133/2/3 132/2/3 131/2/3
f 134/2/3 132/2/3 133/2/3
f 135/3/4 136/3/4 140/3/4
f 138/2/4 139/2/4 141/2/4
f 139/3/4 140/3/4 141/3/4
f 140/3/4 136/3/4 142/3/4
f 141/3/4 140/3/4 142/3/4
f 136/2/4 137/2/4 142/2/4
f 138/2/4 141/2/4 143/2/4
f 141/2/4 142/2/4 143/2/4
f 142/2/4 137/2/4 144/2/4
f 143/2/4 142/2/4 144/2/4
f 138/2/4 143/2/4 145/2/4
f 143/3/4 144/3/4 146/3/4
f 145/2/4 143/2/4 146/2/4
f 146/3/4 144/3/4 147/3/4
f 147/3/4 144/3/4 148/3/4
f 144/2/4 137/2/4 149/2/4
f 148/3/4 144/3/4 149/3/4
f 149/2/4 137/2/4 150/2/4
f 151/2/4 152/2/4 155/2/4
f 155/2/4 152/2/4 156/2/4
f 154/2/4 155/2/4 156/2/4
f 156/2/4 152/2/4 157/2/4
f 152/3/4 153/3/4 158/3/4
f 157/2/4 152/2/4 158/2/4
f 158/3/4 153/3/4 159/3/4
f 154/2/4 156/2/4 160/2/4
f 156/3/4 157/3/4 161/3/4
f 160/2/4 156/2/4 161/2/4
f 161/3/4 157/3/4 162/3/4
f 163/2/4 164/2/4 166/2/4
f 164/3/4 165/3/4 166/3/4
f 166/3/4 165/3/4 167/3/4
f 166/2/4 167/2/4 170/2/4
f 163/2/4 166/2/4 170/2/4
f 167/2/4 168/2/4 170/2/4
f 170/2/4 168/2/4 171/2/4
f 171/2/4 168/2/4 172/2/4
f 168/3/4 169/3/4 173/3/4
f 172/2/4 168/2/4 173/2/4
f 173/3/4 169/3/4 174/3/4
f 180/2/5 176/2/5 175/2/5
f 181/3/5 177/3/5 176/3/5
f 181/2/5 176/2/5 180/2/5
f 182/2/5 178/2/5 177/2/5
f 182/3/5 177/3/5 181/3/5
f 183/2/5 178/2/5 182/2/5
f 185/2/5 181/2/5 180/2/5
f 185/2/5 184/2/5 183/2/5
f 185/2/5 183/2/5 182/2/5
f 185/2/5 182/2/5 181/2/5
f 185/2/5 180/2/5 179/2/5
f 186/2/5 184/2/5 185/2/5
f 187/2/5 185/2/5 179/2/5
f 188/2/5 185/2/5 187/2/5
f 189/2/5 184/2/5 186/2/5
f 190/2/5 184/2/5 189/2/5
f 196/2/5 192/2/5 191/2/5
f 197/2/5 192/2/5 196/2/5
f 198/2/5 194/2/5 193/2/5
f 199/2/5 194/2/5 198/2/5
f 201/2/5 196/2/5 195/2/5
f 202/2/5 196/2/5 201/2/5
f 203/2/5 200/2/5 199/2/5
f 204/2/5 200/2/5 203/2/5
f 209/2/5 206/2/5 205/2/5
f 210/2/5 206/2/5 209/2/5
f 211/2/5 208/2/5 207/2/5
f 212/2/5 208/2/5 211/2/5
f 217/3/5 214/3/5 213/3/5
f 218/3/5 214/3/5 217/3/5
f 219/3/5 216/3/5 215/3/5
f 220/3/5 216/3/5 219/3/5
f 221/3/6 222/3/6 225/3/6
f 225/3/6 222/3/6 226/3/6
f 223/3/6 224/3/6 227/3/6
f 227/3/6 224/3/6 228/3/6
f 229/3/6 230/3/6 233/3/6
f 233/3/6 230/3/6 234/3/6
f 231/3/6 232/3/6 235/3/6
f 235/3/6 232/3/6 236/3/6
f 237/2/6 238/2/6 241/2/6
f 241/2/6 238/2/6 242/2/6
f 238/3/6 239/3/6 243/3/6
f 242/2/6 238/2/6 243/2/6
f 239/2/6 240/2/6 244/2/6
f 243/3/6 239/3/6 244/3/6
f 244/2/6 240/2/6 245/2/6
f 245/2/6 240/2/6 246/2/6
f 242/2/6 243/2/6 247/2/6
f 241/3/6 242/3/6 247/3/6
f 243/2/6 244/2/6 247/2/6
f 244/2/6 245/2/6 247/2/6
f 245/3/6 246/3/6 248/3/6
f 247/2/6 245/2/6 248/2/6
f 241/3/6 247/3/6 249/3/6
f 249/3/6 247/3/6 250/3/6
f 248/3/6 246/3/6 251/3/6
f 251/3/6 246/3/6 252/3/6
